<?xml version="1.0" encoding="UTF-8"?>
<svg version="1.1" xmlns="http://www.w3.org/2000/svg" width="433" height="432">
<path d="M0 0 C0 0.66 0 1.32 0 2 C-0.66 2 -1.32 2 -2 2 C-2 2.66 -2 3.32 -2 4 C-3.34935524 5.16050642 -4.75853148 6.25156471 -6.1875 7.3125 C-24.36887891 21.55372172 -39.53677939 39.47896005 -43 63 C-44.30181492 77.01259113 -40.60470309 92.51489145 -31.65917969 103.67236328 C-31.20188477 104.20458496 -30.74458984 104.73680664 -30.2734375 105.28515625 C-28 108 -28 108 -28 110 C-27.34 110 -26.68 110 -26 110 C-25.236875 110.969375 -24.47375 111.93875 -23.6875 112.9375 C-19.0914364 118.48873574 -12.98214618 122.11446725 -7 126 C-6.23171875 126.52464844 -5.4634375 127.04929687 -4.671875 127.58984375 C31.78838017 151.26277921 82.38297065 157.48760939 125 158 C126.10134277 158.01393799 127.20268555 158.02787598 128.33740234 158.04223633 C138.04198312 158.10573623 147.68843301 157.7396236 157.375 157.1875 C158.15990814 157.14298706 158.94481628 157.09847412 159.75350952 157.0526123 C216.79791417 153.75447229 275.05837994 141.06895874 323.29638672 109.10351562 C327.75057731 106.21831335 332.39475926 103.63405815 337 101 C337 104 337 104 335.71484375 105.359375 C335.12832031 105.81828125 334.54179687 106.2771875 333.9375 106.75 C331.33754187 108.80166764 329.00946857 110.98501247 326.69921875 113.3515625 C323.30498984 116.77325499 319.74064209 119.75335163 315.875 122.625 C315.19252197 123.13224609 314.51004395 123.63949219 313.80688477 124.16210938 C241.02644716 177.29434887 143.43352349 195.30916434 41.68359375 183.0859375 C5.61795143 177.37102019 -32.07249369 166.83045976 -59 141 C-59.886875 140.154375 -60.77375 139.30875 -61.6875 138.4375 C-62.8321875 137.2309375 -62.8321875 137.2309375 -64 136 C-64.52980469 135.47664062 -65.05960938 134.95328125 -65.60546875 134.4140625 C-77.5545464 121.91105409 -81.54191328 106.09302836 -81.41552734 89.26123047 C-80.75788683 65.44496073 -66.91533255 47.27278075 -50.3125 31.375 C-39.37202706 21.4898374 -15.17362327 0 0 0 Z " fill="#F7AC00" transform="translate(88,237)"/>
<path d="M0 0 C2.1998482 1.15740692 4.40164585 2.31111686 6.60546875 3.4609375 C7.64751465 4.00717773 8.68956055 4.55341797 9.76318359 5.11621094 C13.42018942 6.9256822 17.14104973 8.40666693 20.9777832 9.78759766 C22.8125 10.625 22.8125 10.625 23.8125 12.625 C24.61429687 12.89183594 25.41609375 13.15867187 26.2421875 13.43359375 C31.06539042 15.04308707 35.42080001 17.36943877 39.9375 19.6875 C47.53470973 23.53659953 55.17149924 27.25292363 62.9375 30.75 C63.77168457 31.12777588 64.60586914 31.50555176 65.46533203 31.89477539 C68.90216503 33.42791788 72.13098198 34.7942195 75.8125 35.625 C75.4825 35.955 75.1525 36.285 74.8125 36.625 C78.65021821 38.30534385 82.49143335 39.97735062 86.3359375 41.64208984 C87.64028756 42.2082319 88.94369683 42.7765471 90.24609375 43.34716797 C97.00367323 46.30620009 103.56266141 49.12324772 110.8125 50.625 C113.39165653 51.48471884 115.84668769 52.45525143 118.35546875 53.49609375 C123.53238026 55.57229491 128.74611843 57.22195961 134.125 58.6875 C135.06561279 58.94426514 136.00622559 59.20103027 136.9753418 59.46557617 C146.0545752 61.84712602 155.19581862 63.28370002 164.51220703 64.35888672 C165.97844964 64.52851147 167.44329362 64.71107751 168.90576172 64.91064453 C195.54765564 68.36365142 223.95119936 65.40469541 249.8125 58.625 C251.09084717 58.30136475 251.09084717 58.30136475 252.39501953 57.97119141 C265.72387867 54.55030007 278.45850675 49.99009679 291.1875 44.8125 C291.90343323 44.52214874 292.61936646 44.23179749 293.35699463 43.93264771 C301.15465971 41.1754007 301.15465971 41.1754007 307.8125 36.625 C308.8025 36.625 309.7925 36.625 310.8125 36.625 C309.30362085 41.02086793 305.92152061 42.91836439 302.1875 45.3125 C301.51871826 45.74747803 300.84993652 46.18245605 300.16088867 46.63061523 C254.34452312 76.07293057 199.88426682 89.59987103 146.02294922 93.46191406 C144.06693492 93.60622791 142.11324281 93.78129531 140.16015625 93.9609375 C80.70493311 99.00067005 9.01258592 90.77445228 -38.1875 51.625 C-38.88746094 51.06425781 -39.58742188 50.50351562 -40.30859375 49.92578125 C-47.22535894 43.81006681 -52.15876694 33.94034363 -53.25 24.8125 C-53.48059555 16.97225115 -52.03494874 10.89816895 -47.1875 4.625 C-46.65125 3.8 -46.115 2.975 -45.5625 2.125 C-31.78424878 -12.37842234 -15.89911451 -8.56759405 0 0 Z " fill="#163675" transform="translate(111.1875,286.375)"/>
<path d="M0 0 C2.72973088 2.72973088 2.28054262 4.25664284 2.33712769 8.0821228 C2.36036606 9.38013824 2.38360443 10.67815369 2.407547 12.01550293 C2.42292378 13.46264284 2.43794153 14.9097866 2.45263672 16.35693359 C2.47494342 17.87469339 2.49785108 19.39244445 2.52131653 20.91018677 C2.72101876 34.7928337 2.78091935 48.67820203 2.80935478 62.56213951 C2.83203647 72.82076471 2.91950034 83.07446861 3.09283435 93.33167779 C3.20910006 100.5491794 3.24836267 107.76473351 3.23214352 114.98313773 C3.22466583 119.29194371 3.25084985 123.59426555 3.36092758 127.90180588 C3.992281 154.01195481 3.992281 154.01195481 -0.92668915 160.56784821 C-5.56102116 164.65303136 -10.66222344 166.96292071 -16.44077682 169.00442886 C-20.59543714 170.62064582 -24.20954918 173.02332828 -27.9375 175.4375 C-29.40026815 176.33801569 -30.86488649 177.23553879 -32.33203125 178.12890625 C-40.12386169 182.91625258 -47.90252285 187.72525469 -55.66894531 192.55371094 C-57.21760798 193.51456951 -58.76903409 194.47098893 -60.32324219 195.42285156 C-61.03899414 195.86338867 -61.75474609 196.30392578 -62.4921875 196.7578125 C-63.12237793 197.14340332 -63.75256836 197.52899414 -64.40185547 197.92626953 C-66.16438735 199.03598914 -66.16438735 199.03598914 -68 201 C-70.47561878 198.52438122 -70.2561806 197.80436774 -70.2784729 194.39364624 C-70.28963638 193.4232692 -70.30079987 192.45289215 -70.31230164 191.45310974 C-70.31446182 190.38496536 -70.31662201 189.31682098 -70.31884766 188.21630859 C-70.32889328 187.09435593 -70.3389389 185.97240326 -70.34928894 184.81645203 C-70.3802745 181.09378592 -70.39719879 177.37119221 -70.4140625 173.6484375 C-70.43276177 171.07296112 -70.45233423 168.49749095 -70.4727478 165.92202759 C-70.51894144 159.82703262 -70.55630246 153.73204165 -70.58942068 147.63696349 C-70.62761083 140.69865983 -70.67702906 133.7604505 -70.72740483 126.82222629 C-70.83079058 112.54822194 -70.9200293 98.27415376 -71 84 C-71.50861572 84.2266333 -72.01723145 84.4532666 -72.54125977 84.68676758 C-74.8814484 85.72918384 -77.22197181 86.77084638 -79.5625 87.8125 C-80.36236328 88.16892578 -81.16222656 88.52535156 -81.98632812 88.89257812 C-83.1706543 89.41948242 -83.1706543 89.41948242 -84.37890625 89.95703125 C-85.0963501 90.27647705 -85.81379395 90.59592285 -86.55297852 90.92504883 C-89.69284654 92.3043603 -92.84781878 93.64906519 -96 95 C-96 80.81 -96 66.62 -96 52 C-90.72 49.36 -85.44 46.72 -80 44 C-77.20538157 42.48245449 -74.43783125 40.96437412 -71.6875 39.375 C-70.34790463 38.61284451 -69.00806035 37.85112637 -67.66796875 37.08984375 C-67.03938965 36.73132324 -66.41081055 36.37280273 -65.76318359 36.00341797 C-59.17020308 32.25138946 -52.49000008 28.73068628 -45.6875 25.375 C-21.40024114 14.7783995 -21.40024114 14.7783995 0 0 Z " fill="#133577" transform="translate(259,13)"/>
<path d="M0 0 C5.85280698 3.72038893 11.38225944 7.78433993 16.84838867 12.04443359 C20.82935143 15.13353681 24.88363064 18.09432751 29 21 C34.01140482 24.54263963 38.90909157 28.19921838 43.75390625 31.96875 C48.60742401 35.73080683 53.54791187 39.36905371 58.5 43 C63.98652805 47.02280576 69.44294404 51.07219087 74.8125 55.25 C79.13984205 58.6065695 83.52960016 61.83923497 88 65 C93.01328055 68.54460505 97.91249544 72.20339549 102.76049805 75.97314453 C108.35532526 80.30790558 114.06049534 84.48929082 119.7668457 88.67553711 C124.99898417 92.51654352 130.19688189 96.39907773 135.375 100.3125 C141.24255459 104.74621796 147.21870025 108.9688753 153.328125 113.0625 C155.82090525 114.87013012 157.89800519 116.7578722 160 119 C152.82581073 121.05910671 145.15306982 120.02926312 137.8359375 119.21875 C134.23392216 118.9409086 130.61271509 119 127 119 C127 127.58 127 136.16 127 145 C122.58803638 146.89084155 118.84130546 148.46646686 114.3125 149.6875 C112.94544922 150.06455078 112.94544922 150.06455078 111.55078125 150.44921875 C109 151 109 151 105 151 C104.67 151.66 104.34 152.32 104 153 C102.02 153 100.04 153 98 153 C98.05349609 151.6996582 98.10699219 150.39931641 98.16210938 149.05957031 C98.34092611 144.18402381 98.4116663 139.31160143 98.45166016 134.43310547 C98.48357016 132.33188 98.54387986 130.23087023 98.63427734 128.13134766 C99.44552904 116.49869362 99.44552904 116.49869362 95.5135498 105.9324646 C91.79411107 102.26208306 87.52006856 99.63240275 82.96728516 97.11358643 C80.37538756 95.64643665 78.05705194 93.90171662 75.703125 92.08203125 C74.21917676 90.99160648 72.73481268 89.90174737 71.25 88.8125 C64.13606055 83.58134646 57.05317096 78.31289771 50 73 C34.76705476 61.53063838 19.44815226 50.17821355 4 39 C-2.50037539 42.9872713 -8.78695264 47.20795095 -15 51.625 C-27.28418465 60.35778032 -39.7278025 68.85239594 -52.28637695 77.18530273 C-59.880636 82.23353318 -67.39596484 87.39701456 -74.90771484 92.56689453 C-76.72957276 93.81477154 -78.55899973 95.04972319 -80.39453125 96.27734375 C-81.29558594 96.88707031 -82.19664062 97.49679687 -83.125 98.125 C-84.24261719 98.87136719 -84.24261719 98.87136719 -85.3828125 99.6328125 C-87.29087672 101.00543516 -87.29087672 101.00543516 -88 104 C-88.08209792 105.77313851 -88.10746294 107.54920775 -88.09765625 109.32421875 C-88.09443359 110.35224609 -88.09121094 111.38027344 -88.08789062 112.43945312 C-88.07951172 113.51130859 -88.07113281 114.58316406 -88.0625 115.6875 C-88.05798828 116.77095703 -88.05347656 117.85441406 -88.04882812 118.97070312 C-88.03703743 121.64719085 -88.02058063 124.32356777 -88 127 C-98.47787248 122.79517679 -108.35895308 117.76360778 -118.30224609 112.43554688 C-124.2334443 109.27939797 -130.20653222 106.20230318 -136.17163086 103.11083984 C-141.17793563 100.50684072 -146.12451208 97.84178992 -151 95 C-151 94.34 -151 93.68 -151 93 C-150.36473389 92.66258789 -149.72946777 92.32517578 -149.07495117 91.97753906 C-141.33352281 87.81597402 -133.80931022 83.33191822 -126.3125 78.75 C-125.05686829 77.98500089 -123.801171 77.2201094 -122.54541016 76.45532227 C-115.69608136 72.27968766 -108.86341731 68.07860596 -102.07519531 63.80419922 C-97.04284933 60.63826697 -91.97673673 57.52930261 -86.90673828 54.42407227 C-75.99865396 47.74050155 -65.17620273 40.94400529 -54.42089844 34.0168457 C-45.68595994 28.40497139 -36.85719581 22.95722007 -28.00317383 17.53637695 C-21.157373 13.34130885 -14.36309844 9.08299245 -7.63671875 4.69921875 C-5.12101022 3.07798437 -2.57523904 1.52450398 0 0 Z " fill="#F9AE01" transform="translate(264,185)"/>
<path d="M0 0 C2.4366803 2.4366803 2.2535047 3.049724 2.26742554 6.38961792 C2.27595551 7.31214355 2.28448547 8.23466919 2.29327393 9.18515015 C2.29236755 10.20025665 2.29146118 11.21536316 2.29052734 12.26123047 C2.29724457 13.32799011 2.30396179 14.39474976 2.31088257 15.49383545 C2.32994551 19.03499964 2.333791 22.57597513 2.3359375 26.1171875 C2.34235983 28.57097452 2.34908775 31.02476076 2.35610962 33.47854614 C2.36810329 38.62845638 2.37178831 43.77829943 2.37060547 48.92822266 C2.3704022 55.53513957 2.39770337 62.14162669 2.43214989 68.7484417 C2.45436163 73.81843046 2.45844476 78.88831488 2.45738602 83.95834732 C2.45975066 86.39446621 2.46862234 88.8305876 2.48405075 91.26665878 C2.50359372 94.67140743 2.49791802 98.07521748 2.48583984 101.47998047 C2.49707886 102.49103851 2.50831787 103.50209656 2.51989746 104.54379272 C2.45825036 111.36449313 2.45825036 111.36449313 0.17105103 114.53640747 C-2.81239154 116.5476657 -5.89048354 118.31080194 -9.0625 120 C-15.30819081 123.41788901 -21.37398575 127.04418517 -27.375 130.875 C-34.22504092 135.24555705 -41.10871237 139.54678789 -48.05639648 143.76049805 C-52.29041616 146.3320006 -56.50061245 148.93663792 -60.69140625 151.578125 C-61.64740723 152.17826416 -62.6034082 152.77840332 -63.58837891 153.39672852 C-65.45737389 154.57145672 -67.32306409 155.75146284 -69.18505859 156.93725586 C-70.0302002 157.46714111 -70.8753418 157.99702637 -71.74609375 158.54296875 C-72.49560303 159.01758545 -73.2451123 159.49220215 -74.01733398 159.98120117 C-76 161 -76 161 -79 161 C-79.21037808 145.71868703 -79.36901508 130.43744089 -79.46630955 115.1550045 C-79.51268965 108.05873542 -79.57590106 100.9633668 -79.67895508 93.86767578 C-79.77835066 87.02061051 -79.83054907 80.17448151 -79.85389519 73.32674026 C-79.87053333 70.71351006 -79.90302474 68.10033146 -79.95157051 65.48749924 C-80.01685812 61.82826635 -80.02590438 58.17290458 -80.02172852 54.51318359 C-80.054086 53.4313681 -80.08644348 52.34955261 -80.11978149 51.23495483 C-80.03083604 44.03764959 -80.03083604 44.03764959 -77.02779102 41.01475525 C-74.74265053 39.46888676 -72.48253249 38.1973477 -70 37 C-69.060354 36.46407227 -68.12070801 35.92814453 -67.15258789 35.37597656 C-66.35071045 34.96831055 -65.54883301 34.56064453 -64.72265625 34.140625 C-63.80621338 33.66979492 -62.88977051 33.19896484 -61.94555664 32.71386719 C-60.99414795 32.23079102 -60.04273926 31.74771484 -59.0625 31.25 C-51.82726143 27.53057807 -44.64865451 23.74641606 -37.5625 19.75 C-31.36605211 16.26286034 -25.10020872 12.98406764 -18.72094727 9.84472656 C-12.39082256 6.72495382 -6.18869369 3.39106504 0 0 Z " fill="#2263C1" transform="translate(180,105)"/>
<path d="M0 0 C4.23808732 1.33544652 7.12111993 2.59701853 10.5 5.5 C14.37175785 8.71016475 18.32723727 11.72949458 22.4375 14.625 C29.13825277 19.35754176 35.74576358 24.21012937 42.33959961 29.09033203 C43.10280518 29.65478027 43.86601074 30.21922852 44.65234375 30.80078125 C45.38437012 31.34557129 46.11639648 31.89036133 46.87060547 32.45166016 C48.25572524 33.45881787 49.66060264 34.4395257 51.08642578 35.38818359 C55.83956742 38.56057581 55.83956742 38.56057581 56.67973995 40.86180496 C57.01848001 43.12338059 57.12293897 45.25600139 57.12025452 47.54315186 C57.12162918 48.448965 57.12300385 49.35477814 57.12442017 50.28804016 C57.11902725 51.76726204 57.11902725 51.76726204 57.11352539 53.27636719 C57.11367142 54.32058334 57.11381744 55.3647995 57.1139679 56.44065857 C57.11327113 59.89275183 57.10548973 63.34479116 57.09765625 66.796875 C57.09579123 69.19012421 57.09436772 71.58337381 57.09336853 73.97662354 C57.08954996 80.27635756 57.07972527 86.57606854 57.06866455 92.87579346 C57.05843627 99.30391122 57.05386787 105.7320327 57.04882812 112.16015625 C57.03810244 124.77344733 57.02122606 137.38672244 57 150 C56.01 150 55.02 150 54 150 C54 149.34 54 148.68 54 148 C53.38125 147.690625 52.7625 147.38125 52.125 147.0625 C50.75 146.375 49.375 145.6875 48 145 C48 144.34 48 143.68 48 143 C47.30261719 142.76925781 46.60523438 142.53851563 45.88671875 142.30078125 C42.42271918 140.73987211 39.7216156 138.58056379 36.8125 136.1875 C31.24068073 131.70653988 25.55503055 127.42437 19.75 123.25 C18.60217041 122.42302612 18.60217041 122.42302612 17.43115234 121.5793457 C14.19961362 119.26045956 10.96107792 116.95734547 7.66796875 114.7265625 C6.76691406 114.11554688 5.86585938 113.50453125 4.9375 112.875 C4.18339844 112.37742187 3.42929687 111.87984375 2.65234375 111.3671875 C1 110 1 110 0 107 C-0.08878884 105.52783112 -0.12198352 104.05194559 -0.12025452 102.57710266 C-0.12162918 101.67266418 -0.12300385 100.76822571 -0.12442017 99.83638 C-0.12082489 98.84663681 -0.11722961 97.85689362 -0.11352539 96.8371582 C-0.11367142 95.79308807 -0.11381744 94.74901794 -0.1139679 93.67330933 C-0.11327018 90.21577897 -0.10548431 86.75830222 -0.09765625 83.30078125 C-0.09579157 80.9061028 -0.0943679 78.51142396 -0.09336853 76.116745 C-0.08954728 69.80877635 -0.07972031 63.50083066 -0.06866455 57.19287109 C-0.05844202 50.75814118 -0.0538691 44.32340756 -0.04882812 37.88867188 C-0.03809772 25.25910478 -0.02121774 12.62955361 0 0 Z " fill="#2160BD" transform="translate(269,67)"/>
<path d="M0 0 C-1.95519384 1.17192047 -3.9142539 2.3373929 -5.875 3.5 C-7.51082031 4.47453125 -7.51082031 4.47453125 -9.1796875 5.46875 C-12 7 -12 7 -14 7 C-13.67 43.96 -13.34 80.92 -13 119 C-10.525 118.505 -10.525 118.505 -8 118 C-10.01364154 120.13637779 -11.97673174 121.73479075 -14.4921875 123.2421875 C-15.18755615 123.66266357 -15.8829248 124.08313965 -16.59936523 124.51635742 C-17.35032471 124.96470947 -18.10128418 125.41306152 -18.875 125.875 C-20.48885068 126.84671115 -22.10210613 127.81941138 -23.71484375 128.79296875 C-24.56804199 129.30778809 -25.42124023 129.82260742 -26.30029297 130.35302734 C-29.13418727 132.08186176 -31.94584231 133.842826 -34.75390625 135.61328125 C-36.17437256 136.50587646 -36.17437256 136.50587646 -37.62353516 137.41650391 C-39.47920858 138.58438999 -41.3318307 139.75714043 -43.18115234 140.93505859 C-44.45079834 141.73097412 -44.45079834 141.73097412 -45.74609375 142.54296875 C-46.49560303 143.01758545 -47.2451123 143.49220215 -48.01733398 143.98120117 C-50 145 -50 145 -53 145 C-53.21037808 129.71868703 -53.36901508 114.43744089 -53.46630955 99.1550045 C-53.51268965 92.05873542 -53.57590106 84.9633668 -53.67895508 77.86767578 C-53.77835066 71.02061051 -53.83054907 64.17448151 -53.85389519 57.32674026 C-53.87053333 54.71351006 -53.90302474 52.10033146 -53.95157051 49.48749924 C-54.01685812 45.82826635 -54.02590438 42.17290458 -54.02172852 38.51318359 C-54.054086 37.4313681 -54.08644348 36.34955261 -54.11978149 35.23495483 C-54.03083604 28.03764959 -54.03083604 28.03764959 -51.02779102 25.01475525 C-48.74265053 23.46888676 -46.48253249 22.1973477 -44 21 C-43.060354 20.46407227 -42.12070801 19.92814453 -41.15258789 19.37597656 C-40.35071045 18.96831055 -39.54883301 18.56064453 -38.72265625 18.140625 C-37.80516602 17.66906982 -36.88767578 17.19751465 -35.94238281 16.71166992 C-34.99202148 16.22931885 -34.04166016 15.74696777 -33.0625 15.25 C-24.74973136 10.99068159 -16.54318115 6.60403972 -8.49633789 1.85839844 C-3.32592416 -1.10864139 -3.32592416 -1.10864139 0 0 Z " fill="#143576" transform="translate(154,121)"/>
<path d="M0 0 C3.81248426 -0.02887236 7.6249407 -0.04675492 11.4375 -0.0625 C12.52611328 -0.07087891 13.61472656 -0.07925781 14.73632812 -0.08789062 C15.77080078 -0.09111328 16.80527344 -0.09433594 17.87109375 -0.09765625 C18.82943115 -0.10289307 19.78776855 -0.10812988 20.77514648 -0.11352539 C23 0 23 0 24 1 C24.08858646 3.73894085 24.11523479 6.4525327 24.09765625 9.19140625 C24.0962413 10.01124496 24.09482635 10.83108368 24.09336853 11.67576599 C24.08775289 14.30471382 24.07519779 16.93357773 24.0625 19.5625 C24.05748701 21.34049357 24.05292376 23.11848846 24.04882812 24.89648438 C24.03777839 29.26435545 24.02050331 33.63216348 24 38 C20.3710776 38 19.65700533 37.22706003 16.875 35.0078125 C16.08609375 34.38519531 15.2971875 33.76257813 14.484375 33.12109375 C13.66453125 32.46238281 12.8446875 31.80367187 12 31.125 C10.37559803 29.83518397 8.75062158 28.54609104 7.125 27.2578125 C6.40570313 26.6817627 5.68640625 26.10571289 4.9453125 25.51220703 C3.34901943 24.27131355 1.68229957 23.12153305 0 22 C-0.34057617 19.75341797 -0.34057617 19.75341797 -0.29296875 16.9921875 C-0.28330078 16.00605469 -0.27363281 15.01992187 -0.26367188 14.00390625 C-0.23853516 12.97136719 -0.21339844 11.93882812 -0.1875 10.875 C-0.17396484 9.83472656 -0.16042969 8.79445312 -0.14648438 7.72265625 C-0.11105228 5.14792373 -0.06165221 2.5742167 0 0 Z " fill="#F9B002" transform="translate(338,211)"/>
<path d="M0 0 C2.1097676 3.1646514 2.25552605 3.97393773 2.265625 7.59765625 C2.26949219 8.92313477 2.26949219 8.92313477 2.2734375 10.27539062 C2.26570313 11.19513672 2.25796875 12.11488281 2.25 13.0625 C2.25773437 13.98611328 2.26546875 14.90972656 2.2734375 15.86132812 C2.27085937 16.74369141 2.26828125 17.62605469 2.265625 18.53515625 C2.26336914 19.343479 2.26111328 20.15180176 2.25878906 20.98461914 C2 23 2 23 0 25 C-2.13891602 25.24291992 -2.13891602 25.24291992 -4.75390625 25.23046875 C-6.15866211 25.22756836 -6.15866211 25.22756836 -7.59179688 25.22460938 C-9.06229492 25.20624023 -9.06229492 25.20624023 -10.5625 25.1875 C-11.54669922 25.18685547 -12.53089844 25.18621094 -13.54492188 25.18554688 C-20.85982468 25.14017532 -20.85982468 25.14017532 -22 24 C-22.09899523 22.45044441 -22.13079524 20.89646327 -22.1328125 19.34375 C-22.13410156 18.40402344 -22.13539063 17.46429688 -22.13671875 16.49609375 C-22.13285156 15.50738281 -22.12898437 14.51867187 -22.125 13.5 C-22.12886719 12.51128906 -22.13273438 11.52257812 -22.13671875 10.50390625 C-22.13542969 9.56417969 -22.13414062 8.62445313 -22.1328125 7.65625 C-22.13168457 6.78806641 -22.13055664 5.91988281 -22.12939453 5.02539062 C-22 3 -22 3 -21 2 C-19.43827255 1.91314397 -17.87270656 1.89297781 -16.30859375 1.90234375 C-15.36435547 1.90556641 -14.42011719 1.90878906 -13.44726562 1.91210938 C-12.45404297 1.92048828 -11.46082031 1.92886719 -10.4375 1.9375 C-9.44041016 1.94201172 -8.44332031 1.94652344 -7.41601562 1.95117188 C-4.94395151 1.96299993 -2.47200482 1.97948151 0 2 C0 1.34 0 0.68 0 0 Z " fill="#143577" transform="translate(263,291)"/>
<path d="M0 0 C0.81833197 2.87025671 1.12832662 5.42506139 1.1328125 8.40625 C1.13474609 9.64568359 1.13474609 9.64568359 1.13671875 10.91015625 C1.13285156 11.76480469 1.12898438 12.61945313 1.125 13.5 C1.13080078 14.78197266 1.13080078 14.78197266 1.13671875 16.08984375 C1.13542969 16.91613281 1.13414062 17.74242187 1.1328125 18.59375 C1.13168457 19.34333984 1.13055664 20.09292969 1.12939453 20.86523438 C0.99857747 23.02346905 0.59166841 24.92475391 0 27 C-0.99 26.67 -1.98 26.34 -3 26 C-2.34 25.01 -1.68 24.02 -1 23 C-1.59538574 23.01047363 -2.19077148 23.02094727 -2.80419922 23.03173828 C-5.49442343 23.07323949 -8.18458037 23.09930704 -10.875 23.125 C-12.28072266 23.15013672 -12.28072266 23.15013672 -13.71484375 23.17578125 C-15.05869141 23.18544922 -15.05869141 23.18544922 -16.4296875 23.1953125 C-17.25710449 23.20578613 -18.08452148 23.21625977 -18.93701172 23.22705078 C-21 23 -21 23 -23 21 C-23.24291992 19.04467773 -23.24291992 19.04467773 -23.23046875 16.68359375 C-23.22853516 15.83732422 -23.22660156 14.99105469 -23.22460938 14.11914062 C-23.21236328 13.23419922 -23.20011719 12.34925781 -23.1875 11.4375 C-23.18685547 10.54869141 -23.18621094 9.65988281 -23.18554688 8.74414062 C-23.14021097 2.14021097 -23.14021097 2.14021097 -22 1 C-20.62200839 0.84368884 -19.2368291 0.74940042 -17.8515625 0.68359375 C-17.01109375 0.64169922 -16.170625 0.59980469 -15.3046875 0.55664062 C-13.97824219 0.49766602 -13.97824219 0.49766602 -12.625 0.4375 C-11.7484375 0.39431641 -10.871875 0.35113281 -9.96875 0.30664062 C-6.64113682 0.14636568 -3.33199011 0 0 0 Z " fill="#133375" transform="translate(292,265)"/>
<path d="M0 0 C0.91644287 0.00523682 1.83288574 0.01047363 2.77709961 0.01586914 C3.76645508 0.0190918 4.75581055 0.02231445 5.77514648 0.02563477 C6.81606445 0.03401367 7.85698242 0.04239258 8.92944336 0.05102539 C10.49662109 0.05779297 10.49662109 0.05779297 12.09545898 0.06469727 C14.68600996 0.07652627 17.27644895 0.0930085 19.86694336 0.11352539 C21.03276254 2.44516375 20.99599945 3.83506021 20.99975586 6.42993164 C21.00168945 7.69933594 21.00168945 7.69933594 21.00366211 8.99438477 C20.99979492 9.87932617 20.99592773 10.76426758 20.99194336 11.67602539 C20.99774414 13.00923828 20.99774414 13.00923828 21.00366211 14.36938477 C21.00237305 15.21436523 21.00108398 16.0593457 20.99975586 16.92993164 C20.99862793 17.70796143 20.9975 18.48599121 20.99633789 19.28759766 C20.86694336 21.11352539 20.86694336 21.11352539 19.86694336 22.11352539 C18.30745794 22.27038788 16.74151668 22.36429178 15.17553711 22.42993164 C13.75917969 22.49277344 13.75917969 22.49277344 12.31420898 22.55688477 C11.32098633 22.59620117 10.32776367 22.63551758 9.30444336 22.67602539 C8.30735352 22.71920898 7.31026367 22.76239258 6.28295898 22.80688477 C3.81110186 22.91332837 1.33914026 23.01534467 -1.13305664 23.11352539 C-2.78249248 20.21547029 -3.38233601 18.14782322 -3.36352539 14.82055664 C-3.3615918 14.02584961 -3.3596582 13.23114258 -3.35766602 12.41235352 C-3.34541992 11.59186523 -3.33317383 10.77137695 -3.32055664 9.92602539 C-3.31991211 9.09393555 -3.31926758 8.2618457 -3.31860352 7.40454102 C-3.26556629 0.17379974 -3.26556629 0.17379974 0 0 Z " fill="#143475" transform="translate(244.133056640625,265.886474609375)"/>
<path d="M0 0 C0.87454834 0.00523682 1.74909668 0.01047363 2.65014648 0.01586914 C3.59438477 0.0190918 4.53862305 0.02231445 5.51147461 0.02563477 C6.50469727 0.03401367 7.49791992 0.04239258 8.52124023 0.05102539 C9.51833008 0.05553711 10.51541992 0.06004883 11.54272461 0.06469727 C14.01478872 0.07652532 16.48673541 0.0930069 18.95874023 0.11352539 C19.66651015 7.46927704 20.10589716 14.72297779 19.95874023 22.11352539 C16.3053163 23.94023736 11.98034865 23.29823261 7.95874023 23.30102539 C7.03061523 23.31327148 6.10249023 23.32551758 5.14624023 23.33813477 C4.25936523 23.34006836 3.37249023 23.34200195 2.45874023 23.34399414 C1.23670898 23.35015747 1.23670898 23.35015747 -0.01000977 23.35644531 C-2.04125977 23.11352539 -2.04125977 23.11352539 -4.04125977 21.11352539 C-4.19238281 19.06640625 -4.19238281 19.06640625 -4.05297852 16.57836914 C-4.00592773 15.68698242 -3.95887695 14.7955957 -3.91040039 13.87719727 C-3.85045898 12.94456055 -3.79051758 12.01192383 -3.72875977 11.05102539 C-3.68041992 10.11452148 -3.63208008 9.17801758 -3.58227539 8.21313477 C-3.1223774 0.17365213 -3.1223774 0.17365213 0 0 Z " fill="#153575" transform="translate(273.041259765625,292.886474609375)"/>
<path d="M0 0 C0.99 0.33 1.98 0.66 3 1 C1.49092537 5.39643743 -1.89131449 7.29217167 -5.625 9.6875 C-6.61294556 10.33344116 -6.61294556 10.33344116 -7.62084961 10.99243164 C-14.88025708 15.67539571 -22.38928019 19.91833277 -30 24 C-31.62228516 24.89912109 -31.62228516 24.89912109 -33.27734375 25.81640625 C-36 27 -36 27 -39 26 C-39.73046875 24.15234375 -39.73046875 24.15234375 -40.1875 21.9375 C-40.34605469 21.20402344 -40.50460937 20.47054688 -40.66796875 19.71484375 C-40.77753906 19.14894531 -40.88710938 18.58304687 -41 18 C-39.79988281 17.59910156 -38.59976562 17.19820313 -37.36328125 16.78515625 C-24.62533725 12.46307744 -12.29132103 7.45804719 0 2 C0 1.34 0 0.68 0 0 Z " fill="#213B6E" transform="translate(419,322)"/>
<path d="M0 0 C2 2 2 2 2.24609566 3.96400642 C2.24333028 5.17800778 2.24333028 5.17800778 2.24050903 6.41653442 C2.24325836 7.3448407 2.24600769 8.27314697 2.24884033 9.22958374 C2.24164978 10.25097443 2.23445923 11.27236511 2.22705078 12.32470703 C2.22734283 13.39789185 2.22763489 14.47107666 2.22793579 15.57678223 C2.22653831 19.13720685 2.21095737 22.69742427 2.1953125 26.2578125 C2.19158386 28.72118007 2.18873619 31.18454912 2.18673706 33.6479187 C2.17908889 40.14170401 2.15943023 46.63540032 2.1373291 53.12915039 C2.11689614 59.75145259 2.10774081 66.37376913 2.09765625 72.99609375 C2.07618547 85.99743388 2.04241797 98.99871221 2 112 C1.01 112.495 1.01 112.495 0 113 C0 76.7 0 40.4 0 3 C-7.92 6.96 -15.84 10.92 -24 15 C-24.66 14.67 -25.32 14.34 -26 14 C-22.79273249 12.22723124 -19.58399753 10.45713494 -16.375 8.6875 C-15.47136719 8.18798828 -14.56773437 7.68847656 -13.63671875 7.17382812 C-9.13176706 4.69117226 -4.62531743 2.2511927 0 0 Z " fill="#103B8E" transform="translate(180,105)"/>
<path d="M0 0 C6.60982364 0.36303956 12.9810468 1.13547902 19.46875 2.46875 C27.44889419 4.02631068 35.38016708 4.76552978 43.5 5.1875 C44.20058533 5.22736023 44.90117065 5.26722046 45.62298584 5.30828857 C64.399586 6.36404948 83.20194751 6.1904713 102 6 C102 6.66 102 7.32 102 8 C68.0315553 11.28537634 33.43494163 8.42300244 0 2 C0 1.34 0 0.68 0 0 Z " fill="#29355F" transform="translate(153,372)"/>
<path d="M0 0 C0 0.66 0 1.32 0 2 C-4.51815281 2.88277755 -8.77512694 3.10589503 -13.375 3.0625 C-16.654375 3.0315625 -16.654375 3.0315625 -20 3 C-20 8.94 -20 14.88 -20 21 C-13.73 21 -7.46 21 -1 21 C-1 15.06 -1 9.12 -1 3 C-0.67 3 -0.34 3 0 3 C1.02632043 7.22746271 1.1336247 11.21996443 1.125 15.5625 C1.12886719 17.51349609 1.12886719 17.51349609 1.1328125 19.50390625 C1.0287834 22.24231935 0.82835366 24.41632549 0 27 C-0.99 26.67 -1.98 26.34 -3 26 C-2.34 25.01 -1.68 24.02 -1 23 C-1.59538574 23.01047363 -2.19077148 23.02094727 -2.80419922 23.03173828 C-5.49442343 23.07323949 -8.18458037 23.09930704 -10.875 23.125 C-12.28072266 23.15013672 -12.28072266 23.15013672 -13.71484375 23.17578125 C-15.05869141 23.18544922 -15.05869141 23.18544922 -16.4296875 23.1953125 C-17.25710449 23.20578613 -18.08452148 23.21625977 -18.93701172 23.22705078 C-21 23 -21 23 -23 21 C-23.24291992 19.04467773 -23.24291992 19.04467773 -23.23046875 16.68359375 C-23.22853516 15.83732422 -23.22660156 14.99105469 -23.22460938 14.11914062 C-23.21236328 13.23419922 -23.20011719 12.34925781 -23.1875 11.4375 C-23.18685547 10.54869141 -23.18621094 9.65988281 -23.18554688 8.74414062 C-23.14021097 2.14021097 -23.14021097 2.14021097 -22 1 C-20.62200839 0.84368884 -19.2368291 0.74940042 -17.8515625 0.68359375 C-17.01109375 0.64169922 -16.170625 0.59980469 -15.3046875 0.55664062 C-13.97824219 0.49766602 -13.97824219 0.49766602 -12.625 0.4375 C-11.7484375 0.39431641 -10.871875 0.35113281 -9.96875 0.30664062 C-6.64113682 0.14636568 -3.33199011 0 0 0 Z " fill="#323D61" transform="translate(292,265)"/>
<path d="M0 0 C2 2 2 2 2.23047829 4.68240547 C2.22126036 5.83095953 2.21204243 6.97951359 2.20254517 8.16287231 C2.19688034 9.47822968 2.19121552 10.79358704 2.18537903 12.14880371 C2.1688562 13.61499234 2.15214134 15.08117881 2.13525391 16.54736328 C2.12483247 18.08457894 2.11529637 19.62180081 2.10658264 21.1590271 C2.08035617 25.34069874 2.04169128 29.52217519 2.00085878 33.70372629 C1.9603105 38.07056994 1.93111011 42.43748877 1.90072632 46.80441284 C1.84142913 55.07759348 1.77186807 63.35065499 1.69865549 71.62372291 C1.61581691 81.04070239 1.54436558 90.45775736 1.47388959 99.87483621 C1.32863267 119.25000253 1.16901424 138.6250271 1 158 C0.67 158 0.34 158 0 158 C-0.15374933 137.54705411 -0.3017866 117.09407457 -0.4429636 96.64103794 C-0.50864396 87.14502873 -0.57621624 77.64903992 -0.64819336 68.15307617 C-0.71090036 59.87949545 -0.77010764 51.60589848 -0.82505554 43.33226246 C-0.85429228 38.94864751 -0.88531996 34.56506129 -0.92053413 30.18148994 C-0.95358462 26.06039247 -0.9819761 21.93928986 -1.00670624 17.81813431 C-1.01664689 16.30112531 -1.02832826 14.78412664 -1.04183006 13.26714516 C-1.05993092 11.20495599 -1.07191756 9.14282198 -1.08229065 7.08058167 C-1.09058679 5.92373147 -1.09888292 4.76688128 -1.10743046 3.57497501 C-1 1 -1 1 0 0 Z " fill="#2A4C85" transform="translate(259,13)"/>
<path d="M0 0 C2.1097676 3.1646514 2.25552605 3.97393773 2.265625 7.59765625 C2.26949219 8.92313477 2.26949219 8.92313477 2.2734375 10.27539062 C2.26570313 11.19513672 2.25796875 12.11488281 2.25 13.0625 C2.25773437 13.98611328 2.26546875 14.90972656 2.2734375 15.86132812 C2.27085937 16.74369141 2.26828125 17.62605469 2.265625 18.53515625 C2.26336914 19.343479 2.26111328 20.15180176 2.25878906 20.98461914 C2 23 2 23 0 25 C-2.13891602 25.24291992 -2.13891602 25.24291992 -4.75390625 25.23046875 C-6.15866211 25.22756836 -6.15866211 25.22756836 -7.59179688 25.22460938 C-9.06229492 25.20624023 -9.06229492 25.20624023 -10.5625 25.1875 C-11.54669922 25.18685547 -12.53089844 25.18621094 -13.54492188 25.18554688 C-20.85982468 25.14017532 -20.85982468 25.14017532 -22 24 C-22.09899523 22.45044441 -22.13079524 20.89646327 -22.1328125 19.34375 C-22.13410156 18.40402344 -22.13539063 17.46429688 -22.13671875 16.49609375 C-22.13285156 15.50738281 -22.12898437 14.51867187 -22.125 13.5 C-22.12886719 12.51128906 -22.13273438 11.52257812 -22.13671875 10.50390625 C-22.13542969 9.56417969 -22.13414062 8.62445313 -22.1328125 7.65625 C-22.13168457 6.78806641 -22.13055664 5.91988281 -22.12939453 5.02539062 C-22 3 -22 3 -21 2 C-19.43827255 1.91314397 -17.87270656 1.89297781 -16.30859375 1.90234375 C-15.36435547 1.90556641 -14.42011719 1.90878906 -13.44726562 1.91210938 C-12.45404297 1.92048828 -11.46082031 1.92886719 -10.4375 1.9375 C-9.44041016 1.94201172 -8.44332031 1.94652344 -7.41601562 1.95117188 C-4.94395151 1.96299993 -2.47200482 1.97948151 0 2 C0 1.34 0 0.68 0 0 Z M-13.9375 4.4375 C-15.34322266 4.55931641 -15.34322266 4.55931641 -16.77734375 4.68359375 C-18.96876634 4.76863513 -18.96876634 4.76863513 -20 6 C-20.07330331 8.86469325 -20.09217831 11.69893674 -20.0625 14.5625 C-20.041875 17.346875 -20.02125 20.13125 -20 23 C-13.4 23 -6.8 23 0 23 C0 16.73 0 10.46 0 4 C-4.77694324 4 -9.23090997 4.00842798 -13.9375 4.4375 Z " fill="#152F66" transform="translate(263,291)"/>
<path d="M0 0 C0.99 0.33 1.98 0.66 3 1 C1.48325426 5.66941011 -2.3257658 7.55053819 -6.25 10.0625 C-6.90613281 10.49626953 -7.56226563 10.93003906 -8.23828125 11.37695312 C-12.04517897 13.86316764 -15.88303129 16.05019339 -20 18 C-20 17.34 -20 16.68 -20 16 C-22.64 16 -25.28 16 -28 16 C-27 13 -27 13 -24.62329102 11.77319336 C-23.59389404 11.38268799 -22.56449707 10.99218262 -21.50390625 10.58984375 C-20.38822266 10.15736328 -19.27253906 9.72488281 -18.12304688 9.27929688 C-16.94806641 8.83650391 -15.77308594 8.39371094 -14.5625 7.9375 C-12.24955527 7.05534772 -9.93826587 6.16883918 -7.62890625 5.27734375 C-6.59838135 4.88796631 -5.56785645 4.49858887 -4.50610352 4.09741211 C-1.89060493 3.13333162 -1.89060493 3.13333162 0 1 C0 0.67 0 0.34 0 0 Z " fill="#314062" transform="translate(419,322)"/>
<path d="M0 0 C-3.68343785 2.1929746 -7.58362883 2.85138557 -11.75 3.5625 C-12.88598633 3.75646362 -12.88598633 3.75646362 -14.04492188 3.9543457 C-25.9723423 5.89466191 -37.88128636 6.08015848 -49.9375 6.125 C-50.99195313 6.12975342 -52.04640625 6.13450684 -53.1328125 6.1394043 C-59.17069011 6.12649059 -65.01281316 5.78663769 -71 5 C-71 4.67 -71 4.34 -71 4 C-69.9797876 3.98541748 -68.9595752 3.97083496 -67.90844727 3.95581055 C-49.43878005 3.67227747 -31.22456857 3.25080273 -12.9140625 0.62109375 C-8.55997026 0.0066661 -4.39358966 -0.11832853 0 0 Z " fill="#0E2761" transform="translate(351,349)"/>
<path d="M0 0 C-1.70458374 0.72074707 -1.70458374 0.72074707 -3.44360352 1.45605469 C-5.66612406 2.7365457 -6.78032647 3.39417521 -7.66452026 5.8326416 C-7.90782298 8.14530533 -7.94323686 10.37792326 -7.90234375 12.703125 C-7.91463516 13.54091492 -7.92692657 14.37870483 -7.93959045 15.24188232 C-7.97133037 17.91214515 -7.95504279 20.57965067 -7.9375 23.25 C-7.95060844 25.06252568 -7.96684802 26.8750316 -7.98632812 28.6875 C-8.02719121 33.12558866 -8.02499407 37.56181328 -8 42 C-6.02 41.34 -4.04 40.68 -2 40 C-4 43 -4 43 -10 45 C-10 30.81 -10 16.62 -10 2 C-3 -1 -3 -1 0 0 Z " fill="#0C286A" transform="translate(173,63)"/>
<path d="M0 0 C6.93 0 13.86 0 21 0 C22.125 7.875 22.125 7.875 20 11 C19.67 8.69 19.34 6.38 19 4 C13.06 3.67 7.12 3.34 1 3 C1 8.61 1 14.22 1 20 C0.67 20 0.34 20 0 20 C0 13.4 0 6.8 0 0 Z " fill="#122965" transform="translate(271,293)"/>
<path d="M0 0 C0.33 0 0.66 0 1 0 C1 5.94 1 11.88 1 18 C7.6 18 14.2 18 21 18 C21 12.06 21 6.12 21 0 C21.33 0 21.66 0 22 0 C22.19594676 3.14536768 22.3803401 6.29130614 22.5625 9.4375 C22.61857422 10.33533203 22.67464844 11.23316406 22.73242188 12.15820312 C22.78076172 13.01220703 22.82910156 13.86621094 22.87890625 14.74609375 C22.9260376 15.53685303 22.97316895 16.3276123 23.02172852 17.14233398 C23 19 23 19 22 20 C20.44051458 20.15686249 18.87457332 20.25076639 17.30859375 20.31640625 C15.89223633 20.37924805 15.89223633 20.37924805 14.44726562 20.44335938 C13.45404297 20.48267578 12.46082031 20.52199219 11.4375 20.5625 C10.44041016 20.60568359 9.44332031 20.64886719 8.41601562 20.69335938 C5.9441585 20.79980298 3.4721969 20.90181928 1 21 C-0.66296832 18.1054135 -1.22839151 16.21476799 -0.9765625 12.890625 C-0.925 12.13652344 -0.8734375 11.38242187 -0.8203125 10.60546875 C-0.75585938 9.82816406 -0.69140625 9.05085938 -0.625 8.25 C-0.56828125 7.45722656 -0.5115625 6.66445313 -0.453125 5.84765625 C-0.31216305 3.89768265 -0.1574288 1.94871329 0 0 Z " fill="#142961" transform="translate(242,268)"/>
<path d="M0 0 C0 0.66 0 1.32 0 2 C-0.66 2 -1.32 2 -2 2 C-2 2.66 -2 3.32 -2 4 C-3.55003004 5.39589947 -5.16634239 6.71887019 -6.8125 8 C-7.70582031 8.70125 -8.59914063 9.4025 -9.51953125 10.125 C-11.30433028 11.47413942 -13.13842162 12.75894775 -15 14 C-15 13.34 -15 12.68 -15 12 C-15.99 12.33 -16.98 12.66 -18 13 C-20.1875 12.0625 -20.1875 12.0625 -22 11 C-19.41732587 9.54048881 -16.83389259 8.08235119 -14.25 6.625 C-13.52039063 6.2125 -12.79078125 5.8 -12.0390625 5.375 C-11.33007812 4.97539062 -10.62109375 4.57578125 -9.890625 4.1640625 C-8.91657715 3.61419678 -8.91657715 3.61419678 -7.92285156 3.05322266 C-2.34863236 0 -2.34863236 0 0 0 Z " fill="#EEAA0C" transform="translate(88,237)"/>
<path d="M0 0 C2 2 2 2 2.20254517 5.01187134 C2.18033905 6.30426727 2.15813293 7.59666321 2.13525391 8.92822266 C2.12579239 9.64052536 2.11633087 10.35282806 2.10658264 11.0867157 C2.07284762 13.44608926 2.024749 15.80494344 1.9765625 18.1640625 C1.95040123 19.79786819 1.92513376 21.43168841 1.90072632 23.06552124 C1.83401773 27.36965299 1.75513767 31.67347975 1.67376709 35.97735596 C1.59290301 40.36759721 1.5234881 44.75801761 1.453125 49.1484375 C1.31332238 57.76584247 1.16066785 66.38295893 1 75 C0.67 75 0.34 75 0 75 C-0.15358623 65.36895315 -0.30176794 55.73784302 -0.4429636 46.10660648 C-0.50869122 41.63490799 -0.57631211 37.16325453 -0.64819336 32.69165039 C-0.71743575 28.37993979 -0.7817918 24.06818192 -0.84269524 19.75634575 C-0.86685457 18.1076128 -0.89280366 16.4589051 -0.92053413 14.81022835 C-0.95894047 12.50902385 -0.9911014 10.20781341 -1.02172852 7.90649414 C-1.04171402 6.5941127 -1.06169952 5.28173126 -1.08229065 3.92958069 C-1 1 -1 1 0 0 Z " fill="#254782" transform="translate(259,13)"/>
<path d="M0 0 C0.91644287 0.00523682 1.83288574 0.01047363 2.77709961 0.01586914 C3.76645508 0.0190918 4.75581055 0.02231445 5.77514648 0.02563477 C6.81606445 0.03401367 7.85698242 0.04239258 8.92944336 0.05102539 C10.49662109 0.05779297 10.49662109 0.05779297 12.09545898 0.06469727 C14.68600996 0.07652627 17.27644895 0.0930085 19.86694336 0.11352539 C18.87694336 0.44352539 17.88694336 0.77352539 16.86694336 1.11352539 C16.86694336 1.77352539 16.86694336 2.43352539 16.86694336 3.11352539 C10.92694336 3.11352539 4.98694336 3.11352539 -1.13305664 3.11352539 C-1.46305664 8.06352539 -1.79305664 13.01352539 -2.13305664 18.11352539 C-2.46305664 18.11352539 -2.79305664 18.11352539 -3.13305664 18.11352539 C-3.15989976 15.30096258 -3.17981852 12.48865298 -3.19555664 9.67602539 C-3.20393555 8.87358398 -3.21231445 8.07114258 -3.22094727 7.24438477 C-3.22957094 5.20057318 -3.18533814 3.15668637 -3.13305664 1.11352539 C-2.13305664 0.11352539 -2.13305664 0.11352539 0 0 Z " fill="#3D4766" transform="translate(244.133056640625,265.886474609375)"/>
<path d="M0 0 C0.66 0.33 1.32 0.66 2 1 C0.87060876 3.25878249 -0.24594533 4.15561073 -2.1875 5.75 C-5.65958701 8.6625358 -8.83500441 11.7578094 -12 15 C-12.99 14.67 -13.98 14.34 -15 14 C-15 13.34 -15 12.68 -15 12 C-15.66 11.67 -16.32 11.34 -17 11 C-16.02417969 10.37351562 -15.04835938 9.74703125 -14.04296875 9.1015625 C-12.75780386 8.27605512 -11.47264808 7.45053355 -10.1875 6.625 C-9.54490234 6.2125 -8.90230469 5.8 -8.24023438 5.375 C-5.48042011 3.60185508 -2.72947292 1.81964862 0 0 Z " fill="#EBA70C" transform="translate(424,338)"/>
<path d="M0 0 C0.99 0.33 1.98 0.66 3 1 C1.47547071 5.2841203 -1.38803458 6.86470292 -5.125 9.25 C-6.22070312 9.95640625 -7.31640625 10.6628125 -8.4453125 11.390625 C-9.28835938 11.92171875 -10.13140625 12.4528125 -11 13 C-11.66 12.67 -12.32 12.34 -13 12 C-11.72899403 8.18698209 -10.27998015 7.28172532 -7 5 C-4.69778637 3.87510887 -2.38944637 2.93703779 0 2 C0 1.34 0 0.68 0 0 Z " fill="#263768" transform="translate(419,322)"/>
<path d="M0 0 C-3.82026681 2.31836772 -7.97730144 2.89060163 -12.3125 3.625 C-13.04662109 3.7590625 -13.78074219 3.893125 -14.53710938 4.03125 C-20.81244871 5.12261336 -26.74546267 5.51625147 -33 4 C-33 3.67 -33 3.34 -33 3 C-29.00097233 2.4920154 -25.00064616 1.99506324 -21 1.5 C-19.31197266 1.28537109 -19.31197266 1.28537109 -17.58984375 1.06640625 C-11.676703 0.34023107 -5.95736399 -0.17521659 0 0 Z " fill="#1A2F63" transform="translate(351,349)"/>
<path d="M0 0 C-3.94702993 2.44036797 -8.24903293 2.90425691 -12.75 3.625 C-13.5234375 3.7590625 -14.296875 3.893125 -15.09375 4.03125 C-20.12822044 4.85906561 -24.89917053 5.12810302 -30 5 C-26.21045277 2.71234682 -22.10949936 2.10603642 -17.8125 1.375 C-17.05525635 1.24311279 -16.2980127 1.11122559 -15.51782227 0.9753418 C-10.27862257 0.1057954 -5.31750029 -0.29004547 0 0 Z " fill="#32315C" transform="translate(314,371)"/>
<path d="M0 0 C0.66 0.33 1.32 0.66 2 1 C-4.7242373 5.93013494 -11.59997094 10.1593005 -19 14 C-17.83720608 10.51161825 -17.18232563 10.2237397 -14.125 8.4375 C-13.42632812 8.02371094 -12.72765625 7.60992187 -12.0078125 7.18359375 C-11.34523438 6.79300781 -10.68265625 6.40242187 -10 6 C-9.01 5.34 -8.02 4.68 -7 4 C-4.69996662 2.55031304 -2.41338526 1.27251223 0 0 Z " fill="#1E3368" transform="translate(135,244)"/>
<path d="M0 0 C1.98 0 3.96 0 6 0 C6.33 0.99 6.66 1.98 7 3 C8.051875 3.12375 9.10375 3.2475 10.1875 3.375 C13.45958771 3.91140782 16.00536076 4.63880035 19 6 C18.67 6.99 18.34 7.98 18 9 C13.64029169 7.65150163 9.68658562 5.95092154 5.625 3.875 C4.56539062 3.33617187 3.50578125 2.79734375 2.4140625 2.2421875 C1.61742187 1.83226562 0.82078125 1.42234375 0 1 C0 0.67 0 0.34 0 0 Z " fill="#DB910B" transform="translate(137,292)"/>
<path d="M0 0 C1.46555316 0.73579212 2.92224487 1.48925126 4.375 2.25 C5.18710937 2.66765625 5.99921875 3.0853125 6.8359375 3.515625 C9 5 9 5 11 9 C7.7 8.67 4.4 8.34 1 8 C1.66 7.67 2.32 7.34 3 7 C2.67 5.35 2.34 3.7 2 2 C1.34 2 0.68 2 0 2 C0 1.34 0 0.68 0 0 Z " fill="#EAA30A" transform="translate(413,296)"/>
<path d="M0 0 C6.86087016 1.55928867 12.79044974 4.75757474 19 8 C15.07871478 9.3058334 13.02168909 8.38030356 9.31640625 6.59960938 C8.63449219 6.25736328 7.95257813 5.91511719 7.25 5.5625 C6.55261719 5.22412109 5.85523438 4.88574219 5.13671875 4.53710938 C3.41931879 3.70193542 1.70894262 2.85234576 0 2 C0 1.34 0 0.68 0 0 Z " fill="#1E3062" transform="translate(159,311)"/>
<path d="M0 0 C2 2 2 2 2.13525391 4.98095703 C2.08288574 6.22731934 2.03051758 7.47368164 1.9765625 8.7578125 C1.95153656 9.42086395 1.92651062 10.08391541 1.90072632 10.76705933 C1.81848733 12.88689015 1.72191635 15.00579437 1.625 17.125 C1.56676418 18.56115994 1.50946081 19.99735802 1.453125 21.43359375 C1.31290458 24.95623602 1.159824 28.4781866 1 32 C0.67 32 0.34 32 0 32 C-0.16726689 27.60364953 -0.32786093 23.20712239 -0.48217773 18.81030273 C-0.53566434 17.31349062 -0.5909987 15.81674337 -0.64819336 14.32006836 C-0.72991956 12.17315668 -0.8050746 10.02610207 -0.87890625 7.87890625 C-0.9260376 6.5854126 -0.97316895 5.29191895 -1.02172852 3.95922852 C-1 1 -1 1 0 0 Z " fill="#213D75" transform="translate(259,13)"/>
<path d="M0 0 C0 0.66 0 1.32 0 2 C-0.66 2 -1.32 2 -2 2 C-2 2.66 -2 3.32 -2 4 C-3.96147874 5.38938077 -5.96166576 6.7260411 -8 8 C-8 7.34 -8 6.68 -8 6 C-9.32 5.67 -10.64 5.34 -12 5 C-10.37750059 4.16180842 -8.75191503 3.3295884 -7.125 2.5 C-6.22007813 2.0359375 -5.31515625 1.571875 -4.3828125 1.09375 C-2 0 -2 0 0 0 Z " fill="#D69216" transform="translate(88,237)"/>
<path d="M0 0 C0.66 0.33 1.32 0.66 2 1 C0.4386402 4.1227196 -2.06617192 6.19923656 -5 8 C-8.375 8.3125 -8.375 8.3125 -11 8 C-8.83385197 5.69125289 -6.60793392 3.94709819 -3.9375 2.25 C-2.89916016 1.57710938 -2.89916016 1.57710938 -1.83984375 0.890625 C-1.23269531 0.59671875 -0.62554687 0.3028125 0 0 Z " fill="#DEA313" transform="translate(424,338)"/>
<path d="M0 0 C-2.1217363 1.33878572 -4.24705188 2.67115476 -6.375 4 C-6.97828125 4.3815625 -7.5815625 4.763125 -8.203125 5.15625 C-12.7734375 8 -12.7734375 8 -15 8 C-14 5 -14 5 -12 3.9375 C-11.34 3.628125 -10.68 3.31875 -10 3 C-9.67 2.34 -9.34 1.68 -9 1 C-5.50639525 -0.79401325 -3.71425351 -1.11665191 0 0 Z " fill="#1F3569" transform="translate(239,184)"/>
<path d="M0 0 C0.66 0.33 1.32 0.66 2 1 C-1.16952847 4.26008643 -4.39937989 7.22237877 -8 10 C-8.66 9.67 -9.32 9.34 -10 9 C-7.12505529 5.01930733 -4.17882671 2.56428003 0 0 Z " fill="#213165" transform="translate(74,282)"/>
<path d="M0 0 C-0.33 0.66 -0.66 1.32 -1 2 C-7.62640373 3.65660093 -14.27395558 2.65743291 -21 2 C-21 1.67 -21 1.34 -21 1 C-18.81274749 0.83011631 -16.62518299 0.66424731 -14.4375 0.5 C-12.61025391 0.36078125 -12.61025391 0.36078125 -10.74609375 0.21875 C-7.15365784 0.00897272 -3.59752457 -0.03704015 0 0 Z " fill="#152C6C" transform="translate(293,267)"/>
<path d="M0 0 C0 0.66 0 1.32 0 2 C-2.14281033 3.46582355 -4.26706396 4.81123514 -6.5 6.125 C-7.12003906 6.49753906 -7.74007812 6.87007812 -8.37890625 7.25390625 C-9.91537838 8.17578953 -11.45720675 9.08873475 -13 10 C-13 9.01 -13 8.02 -13 7 C-10.6640625 5.17578125 -10.6640625 5.17578125 -7.625 3.3125 C-6.62726563 2.68988281 -5.62953125 2.06726563 -4.6015625 1.42578125 C-2 0 -2 0 0 0 Z " fill="#182D64" transform="translate(211,199)"/>
<path d="M0 0 C-2.68841859 2.25245881 -4.64641875 3.88213958 -8 5 C-8 4.34 -8 3.68 -8 3 C-8.66 3 -9.32 3 -10 3 C-10 2.34 -10 1.68 -10 1 C-6.21812119 -0.83691257 -4.05431692 -1.15837626 0 0 Z " fill="#283B67" transform="translate(407,335)"/>
<path d="M0 0 C0.99 0.33 1.98 0.66 3 1 C1.54744301 4.82946843 -0.42895561 6.12050295 -4 8 C-4 7.34 -4 6.68 -4 6 C-4.99 5.67 -5.98 5.34 -7 5 C-4.69 4.01 -2.38 3.02 0 2 C0 1.34 0 0.68 0 0 Z " fill="#666647" transform="translate(419,322)"/>
<path d="M0 0 C0.66 0 1.32 0 2 0 C2.26554687 0.55429687 2.53109375 1.10859375 2.8046875 1.6796875 C3.15789063 2.40414063 3.51109375 3.12859375 3.875 3.875 C4.22304687 4.59429687 4.57109375 5.31359375 4.9296875 6.0546875 C5.96557543 8.15135019 5.96557543 8.15135019 8 10 C7.625 12.125 7.625 12.125 7 14 C6.01441551 12.42065361 5.03677459 10.83634827 4.0625 9.25 C3.51722656 8.36828125 2.97195312 7.4865625 2.41015625 6.578125 C1.17284288 4.31600083 0.46409487 2.51433675 0 0 Z " fill="#2A3462" transform="translate(60,318)"/>
<path d="M0 0 C1.35158203 0.15275391 1.35158203 0.15275391 2.73046875 0.30859375 C3.41753906 0.39238281 4.10460937 0.47617187 4.8125 0.5625 C4.8125 1.2225 4.8125 1.8825 4.8125 2.5625 C3.02116022 2.61641993 1.22936101 2.65525571 -0.5625 2.6875 C-1.56023437 2.71070313 -2.55796875 2.73390625 -3.5859375 2.7578125 C-6.1875 2.5625 -6.1875 2.5625 -8.1875 0.5625 C-4.98734144 -0.50421952 -3.30205706 -0.38595472 0 0 Z " fill="#0C285C" transform="translate(273.1875,350.4375)"/>
<path d="M0 0 C-0.309375 0.598125 -0.61875 1.19625 -0.9375 1.8125 C-2.10209704 4.08956772 -2.10209704 4.08956772 -3 7 C-5.475 6.01 -5.475 6.01 -8 5 C-8 4.34 -8 3.68 -8 3 C-2.25 0 -2.25 0 0 0 Z " fill="#DB8C0E" transform="translate(121,275)"/>
<path d="M0 0 C3.96 0.33 7.92 0.66 12 1 C8.64672361 3.23551759 8.09256343 3.17283528 4.3125 2.625 C3.50425781 2.51414062 2.69601563 2.40328125 1.86328125 2.2890625 C1.24839844 2.19367188 0.63351563 2.09828125 0 2 C0 1.34 0 0.68 0 0 Z " fill="#2D3262" transform="translate(153,372)"/>
<path d="M0 0 C6.91428571 0.94285714 6.91428571 0.94285714 10 3 C10.33 3.99 10.66 4.98 11 6 C6.95743617 4.77782954 3.50711041 3.37245704 0 1 C0 0.67 0 0.34 0 0 Z " fill="#D9900C" transform="translate(119,282)"/>
<path d="M0 0 C0.33 0 0.66 0 1 0 C1.22786458 1.98567708 1.45572917 3.97135417 1.68359375 5.95703125 C1.97170735 8.19396393 1.97170735 8.19396393 3 11 C2.34 11.66 1.68 12.32 1 13 C0.34 12.34 -0.32 11.68 -1 11 C-0.9765625 8.3984375 -0.9765625 8.3984375 -0.625 5.375 C-0.51414063 4.37210938 -0.40328125 3.36921875 -0.2890625 2.3359375 C-0.19367188 1.56507813 -0.09828125 0.79421875 0 0 Z " fill="#102357" transform="translate(190,201)"/>
<path d="M0 0 C3.91211733 1.15585285 6.8745041 2.35534962 10 5 C7 6 7 6 5.17578125 5.22265625 C3.45052083 4.1484375 1.72526042 3.07421875 0 2 C0 1.34 0 0.68 0 0 Z " fill="#27385F" transform="translate(135,299)"/>
<path d="M0 0 C0 0.33 0 0.66 0 1 C-9.41002278 3.48063781 -9.41002278 3.48063781 -14 2 C-14 1.67 -14 1.34 -14 1 C-9.27685687 0.22887459 -4.78478822 -0.09764874 0 0 Z " fill="#E59B07" transform="translate(296,390)"/>
<path d="M0 0 C-0.66 1.32 -1.32 2.64 -2 4 C-3.65 4 -5.3 4 -7 4 C-6.67 3.01 -6.34 2.02 -6 1 C-3 0 -3 0 0 0 Z " fill="#F5AD06" transform="translate(418,345)"/>
<path d="M0 0 C0.66 0.33 1.32 0.66 2 1 C2 4.3 2 7.6 2 11 C1.01 11 0.02 11 -1 11 C-0.67 7.37 -0.34 3.74 0 0 Z " fill="#273867" transform="translate(291,304)"/>
<path d="M0 0 C0.99 0 1.98 0 3 0 C3.33 1.98 3.66 3.96 4 6 C2.68 5.67 1.36 5.34 0 5 C0 3.33333333 0 1.66666667 0 0 Z " fill="#3D659F" transform="translate(320,209)"/>
<path d="M0 0 C2.92879371 0.62759865 5.36095629 1.58622659 8 3 C7.67 3.66 7.34 4.32 7 5 C4.0625 4.1875 4.0625 4.1875 1 3 C0.67 2.01 0.34 1.02 0 0 Z " fill="#E69907" transform="translate(148,296)"/>
<path d="M0 0 C4 1 4 1 4 1 Z " fill="#1F1F1F" transform="translate(88,277)"/>
<path d="M0 0 C3 1 3 1 3 1 Z " fill="#E21C1C" transform="translate(202,381)"/>
<path d="" fill="#FFFF00" transform="translate(0,0)"/>
<path d="M0 0 C3 1 3 1 3 1 Z " fill="#15152A" transform="translate(274,291)"/>
<path d="M0 0 C2 1 2 1 2 1 Z " fill="#FFBF00" transform="translate(330,400)"/>
<path d="M0 0 C2 1 2 1 2 1 Z " fill="#FFBF00" transform="translate(245,393)"/>
<path d="M0 0 C2 1 2 1 2 1 Z " fill="#FF0000" transform="translate(191,380)"/>
<path d="M0 0 C2 1 2 1 2 1 Z " fill="#FF0000" transform="translate(150,374)"/>
<path d="M0 0 C2 1 2 1 2 1 Z " fill="#BF3F3F" transform="translate(143,372)"/>
<path d="M0 0 C2 1 2 1 2 1 Z " fill="#D42A2A" transform="translate(124,367)"/>
<path d="" fill="#FFFF00" transform="translate(0,0)"/>
<path d="M0 0 C2 1 2 1 2 1 Z " fill="#BFBF00" transform="translate(426,341)"/>
<path d="" fill="#FFFF00" transform="translate(0,0)"/>
<path d="M0 0 C2 1 2 1 2 1 Z " fill="#946A4A" transform="translate(364,339)"/>
<path d="M0 0 C2 1 2 1 2 1 Z " fill="#BF3F3F" transform="translate(361,339)"/>
<path d="M0 0 C2 1 2 1 2 1 Z " fill="#946A4A" transform="translate(381,337)"/>
<path d="M0 0 C2 1 2 1 2 1 Z " fill="#1F5F7F" transform="translate(202,329)"/>
<path d="" fill="#FFFF00" transform="translate(0,0)"/>
<path d="" fill="#000000" transform="translate(0,0)"/>
<path d="" fill="#FFD400" transform="translate(0,0)"/>
<path d="" fill="#000000" transform="translate(0,0)"/>
<path d="" fill="#FFBF00" transform="translate(0,0)"/>
<path d="" fill="#FFD400" transform="translate(0,0)"/>
<path d="M0 0 C2 1 2 1 2 1 Z " fill="#000000" transform="translate(259,291)"/>
<path d="M0 0 C2 1 2 1 2 1 Z " fill="#3F3F3F" transform="translate(267,269)"/>
<path d="M0 0 C2 1 2 1 2 1 Z " fill="#000000" transform="translate(212,200)"/>
<path d="" fill="#003FBF" transform="translate(0,0)"/>
<path d="" fill="#002A2A" transform="translate(0,0)"/>
<path d="M0 0 C2 1 2 1 2 1 Z " fill="#19445D" transform="translate(190,49)"/>
<path d="" fill="#7F7F00" transform="translate(0,0)"/>
<path d="" fill="#FF0000" transform="translate(0,0)"/>
<path d="" fill="#FF7F00" transform="translate(0,0)"/>
<path d="" fill="#FF7F00" transform="translate(0,0)"/>
<path d="" fill="#FFFF00" transform="translate(0,0)"/>
<path d="" fill="#FFFF00" transform="translate(0,0)"/>
<path d="" fill="#FFFF00" transform="translate(0,0)"/>
<path d="" fill="#FFFF00" transform="translate(0,0)"/>
<path d="" fill="#FFFF00" transform="translate(0,0)"/>
<path d="" fill="#FFFF00" transform="translate(0,0)"/>
<path d="" fill="#FFFF00" transform="translate(0,0)"/>
<path d="" fill="#FFFF00" transform="translate(0,0)"/>
<path d="" fill="#FFFF00" transform="translate(0,0)"/>
<path d="" fill="#FFFF00" transform="translate(0,0)"/>
<path d="" fill="#FF0000" transform="translate(0,0)"/>
<path d="" fill="#FF7F00" transform="translate(0,0)"/>
<path d="" fill="#FF0000" transform="translate(0,0)"/>
<path d="" fill="#FF0000" transform="translate(0,0)"/>
<path d="" fill="#FF0000" transform="translate(0,0)"/>
<path d="" fill="#FFFF00" transform="translate(0,0)"/>
<path d="" fill="#7F7F7F" transform="translate(0,0)"/>
<path d="" fill="#FF0000" transform="translate(0,0)"/>
<path d="" fill="#FF0000" transform="translate(0,0)"/>
<path d="" fill="#7F7F00" transform="translate(0,0)"/>
<path d="" fill="#FFFF00" transform="translate(0,0)"/>
<path d="" fill="#7F7F00" transform="translate(0,0)"/>
<path d="" fill="#7F7F7F" transform="translate(0,0)"/>
<path d="" fill="#FF0000" transform="translate(0,0)"/>
<path d="" fill="#FFFF00" transform="translate(0,0)"/>
<path d="" fill="#FFFF00" transform="translate(0,0)"/>
<path d="" fill="#FF0000" transform="translate(0,0)"/>
<path d="" fill="#FFFF00" transform="translate(0,0)"/>
<path d="" fill="#FF7F00" transform="translate(0,0)"/>
<path d="" fill="#FFFF00" transform="translate(0,0)"/>
<path d="" fill="#FF0000" transform="translate(0,0)"/>
<path d="" fill="#AA5555" transform="translate(0,0)"/>
<path d="" fill="#FFFF00" transform="translate(0,0)"/>
<path d="" fill="#FF7F00" transform="translate(0,0)"/>
<path d="" fill="#FF0000" transform="translate(0,0)"/>
<path d="" fill="#FFFF00" transform="translate(0,0)"/>
<path d="" fill="#7F7F00" transform="translate(0,0)"/>
<path d="" fill="#FF0000" transform="translate(0,0)"/>
<path d="" fill="#FF0000" transform="translate(0,0)"/>
<path d="" fill="#FFFF00" transform="translate(0,0)"/>
<path d="" fill="#7F7F7F" transform="translate(0,0)"/>
<path d="" fill="#000000" transform="translate(0,0)"/>
<path d="" fill="#FF7F00" transform="translate(0,0)"/>
<path d="" fill="#FF0000" transform="translate(0,0)"/>
<path d="" fill="#FFFF00" transform="translate(0,0)"/>
<path d="" fill="#000000" transform="translate(0,0)"/>
<path d="" fill="#7F7F7F" transform="translate(0,0)"/>
<path d="" fill="#7F7F00" transform="translate(0,0)"/>
<path d="" fill="#7F7F7F" transform="translate(0,0)"/>
<path d="" fill="#000000" transform="translate(0,0)"/>
<path d="" fill="#7F7F00" transform="translate(0,0)"/>
<path d="" fill="#FFFF00" transform="translate(0,0)"/>
<path d="" fill="#007F7F" transform="translate(0,0)"/>
<path d="" fill="#000000" transform="translate(0,0)"/>
<path d="" fill="#FFFF00" transform="translate(0,0)"/>
<path d="" fill="#000000" transform="translate(0,0)"/>
<path d="" fill="#7F7F00" transform="translate(0,0)"/>
<path d="" fill="#7F7F7F" transform="translate(0,0)"/>
<path d="" fill="#FF0000" transform="translate(0,0)"/>
<path d="" fill="#FF0000" transform="translate(0,0)"/>
<path d="" fill="#FF0000" transform="translate(0,0)"/>
<path d="" fill="#FFFF00" transform="translate(0,0)"/>
<path d="" fill="#AAAA55" transform="translate(0,0)"/>
<path d="" fill="#FFFF00" transform="translate(0,0)"/>
<path d="" fill="#000000" transform="translate(0,0)"/>
<path d="" fill="#7F7F00" transform="translate(0,0)"/>
<path d="" fill="#FFFF00" transform="translate(0,0)"/>
<path d="" fill="#BF7F3F" transform="translate(0,0)"/>
<path d="" fill="#7F7F7F" transform="translate(0,0)"/>
<path d="" fill="#AAAA55" transform="translate(0,0)"/>
<path d="" fill="#AAAA55" transform="translate(0,0)"/>
<path d="" fill="#FFFF00" transform="translate(0,0)"/>
<path d="" fill="#AAAA55" transform="translate(0,0)"/>
<path d="" fill="#BF7F3F" transform="translate(0,0)"/>
<path d="" fill="#FFFF00" transform="translate(0,0)"/>
<path d="" fill="#9F7F3F" transform="translate(0,0)"/>
<path d="" fill="#FFFF00" transform="translate(0,0)"/>
<path d="" fill="#000000" transform="translate(0,0)"/>
<path d="" fill="#555555" transform="translate(0,0)"/>
<path d="" fill="#000000" transform="translate(0,0)"/>
<path d="" fill="#000000" transform="translate(0,0)"/>
<path d="" fill="#000000" transform="translate(0,0)"/>
<path d="" fill="#555555" transform="translate(0,0)"/>
<path d="" fill="#000000" transform="translate(0,0)"/>
<path d="" fill="#000000" transform="translate(0,0)"/>
<path d="" fill="#007F7F" transform="translate(0,0)"/>
<path d="" fill="#000000" transform="translate(0,0)"/>
<path d="" fill="#000000" transform="translate(0,0)"/>
<path d="" fill="#FFFF00" transform="translate(0,0)"/>
<path d="" fill="#FFFF00" transform="translate(0,0)"/>
<path d="" fill="#FFAA00" transform="translate(0,0)"/>
<path d="" fill="#FFFF00" transform="translate(0,0)"/>
<path d="" fill="#FF7F00" transform="translate(0,0)"/>
<path d="" fill="#FFAA00" transform="translate(0,0)"/>
<path d="" fill="#FFFF00" transform="translate(0,0)"/>
<path d="" fill="#000000" transform="translate(0,0)"/>
<path d="" fill="#FFAA00" transform="translate(0,0)"/>
<path d="" fill="#000000" transform="translate(0,0)"/>
<path d="" fill="#FFFF00" transform="translate(0,0)"/>
<path d="" fill="#7F7F7F" transform="translate(0,0)"/>
<path d="" fill="#007F7F" transform="translate(0,0)"/>
<path d="" fill="#000000" transform="translate(0,0)"/>
<path d="" fill="#7F7F00" transform="translate(0,0)"/>
<path d="" fill="#FFFF00" transform="translate(0,0)"/>
<path d="" fill="#FFFF00" transform="translate(0,0)"/>
<path d="" fill="#000000" transform="translate(0,0)"/>
<path d="" fill="#000000" transform="translate(0,0)"/>
<path d="" fill="#FF7F00" transform="translate(0,0)"/>
<path d="" fill="#FFFF00" transform="translate(0,0)"/>
<path d="" fill="#555555" transform="translate(0,0)"/>
<path d="" fill="#000000" transform="translate(0,0)"/>
<path d="" fill="#555555" transform="translate(0,0)"/>
<path d="" fill="#7F7F3F" transform="translate(0,0)"/>
<path d="" fill="#000000" transform="translate(0,0)"/>
<path d="" fill="#000000" transform="translate(0,0)"/>
<path d="" fill="#FFFF00" transform="translate(0,0)"/>
<path d="" fill="#FFFF00" transform="translate(0,0)"/>
<path d="" fill="#000000" transform="translate(0,0)"/>
<path d="" fill="#000000" transform="translate(0,0)"/>
<path d="" fill="#555555" transform="translate(0,0)"/>
<path d="" fill="#FFFF00" transform="translate(0,0)"/>
<path d="" fill="#7F7F00" transform="translate(0,0)"/>
<path d="" fill="#7F7F7F" transform="translate(0,0)"/>
<path d="" fill="#BF7F3F" transform="translate(0,0)"/>
<path d="" fill="#FFFF00" transform="translate(0,0)"/>
<path d="" fill="#FFFF00" transform="translate(0,0)"/>
<path d="" fill="#FFFF00" transform="translate(0,0)"/>
<path d="" fill="#BF7F3F" transform="translate(0,0)"/>
<path d="" fill="#7F7F00" transform="translate(0,0)"/>
<path d="" fill="#000000" transform="translate(0,0)"/>
<path d="" fill="#FFFF00" transform="translate(0,0)"/>
<path d="" fill="#7F7F7F" transform="translate(0,0)"/>
<path d="" fill="#000000" transform="translate(0,0)"/>
<path d="" fill="#FFFF00" transform="translate(0,0)"/>
<path d="" fill="#FF7F00" transform="translate(0,0)"/>
<path d="" fill="#FFFF00" transform="translate(0,0)"/>
<path d="" fill="#FFFF00" transform="translate(0,0)"/>
<path d="" fill="#FFFF00" transform="translate(0,0)"/>
<path d="" fill="#0000FF" transform="translate(0,0)"/>
<path d="" fill="#0000FF" transform="translate(0,0)"/>
<path d="" fill="#7F7F7F" transform="translate(0,0)"/>
<path d="" fill="#FFFF00" transform="translate(0,0)"/>
<path d="" fill="#FFFF00" transform="translate(0,0)"/>
<path d="" fill="#555555" transform="translate(0,0)"/>
<path d="" fill="#FF7F00" transform="translate(0,0)"/>
<path d="" fill="#7F7F7F" transform="translate(0,0)"/>
<path d="" fill="#FFFF00" transform="translate(0,0)"/>
<path d="" fill="#000000" transform="translate(0,0)"/>
<path d="" fill="#FF0000" transform="translate(0,0)"/>
<path d="" fill="#7F7F7F" transform="translate(0,0)"/>
<path d="" fill="#FFFF00" transform="translate(0,0)"/>
<path d="" fill="#AAAA55" transform="translate(0,0)"/>
<path d="" fill="#7F7F7F" transform="translate(0,0)"/>
<path d="" fill="#000000" transform="translate(0,0)"/>
<path d="" fill="#FFFF00" transform="translate(0,0)"/>
<path d="" fill="#7F7F7F" transform="translate(0,0)"/>
<path d="" fill="#000000" transform="translate(0,0)"/>
<path d="" fill="#AAAA55" transform="translate(0,0)"/>
<path d="" fill="#000000" transform="translate(0,0)"/>
<path d="" fill="#000000" transform="translate(0,0)"/>
<path d="" fill="#000000" transform="translate(0,0)"/>
<path d="" fill="#000000" transform="translate(0,0)"/>
<path d="" fill="#7F7F7F" transform="translate(0,0)"/>
<path d="" fill="#000000" transform="translate(0,0)"/>
<path d="" fill="#0000FF" transform="translate(0,0)"/>
<path d="" fill="#0000FF" transform="translate(0,0)"/>
<path d="" fill="#000000" transform="translate(0,0)"/>
<path d="" fill="#0000FF" transform="translate(0,0)"/>
<path d="" fill="#000000" transform="translate(0,0)"/>
<path d="" fill="#007F7F" transform="translate(0,0)"/>
<path d="" fill="#1C3871" transform="translate(0,0)"/>
<path d="" fill="#000000" transform="translate(0,0)"/>
<path d="" fill="#000000" transform="translate(0,0)"/>
<path d="" fill="#000000" transform="translate(0,0)"/>
<path d="" fill="#000000" transform="translate(0,0)"/>
<path d="" fill="#3F3F7F" transform="translate(0,0)"/>
<path d="" fill="#0000FF" transform="translate(0,0)"/>
<path d="" fill="#007F7F" transform="translate(0,0)"/>
<path d="" fill="#0000FF" transform="translate(0,0)"/>
<path d="" fill="#000000" transform="translate(0,0)"/>
<path d="" fill="#0000FF" transform="translate(0,0)"/>
<path d="" fill="#0000FF" transform="translate(0,0)"/>
<path d="" fill="#0000FF" transform="translate(0,0)"/>
<path d="" fill="#007F7F" transform="translate(0,0)"/>
<path d="" fill="#000000" transform="translate(0,0)"/>
<path d="" fill="#007F7F" transform="translate(0,0)"/>
<path d="" fill="#0000FF" transform="translate(0,0)"/>
<path d="" fill="#0000FF" transform="translate(0,0)"/>
<path d="" fill="#0000FF" transform="translate(0,0)"/>
<path d="" fill="#000000" transform="translate(0,0)"/>
<path d="" fill="#007F7F" transform="translate(0,0)"/>
<path d="" fill="#0000FF" transform="translate(0,0)"/>
<path d="" fill="#0000FF" transform="translate(0,0)"/>
<path d="" fill="#007F7F" transform="translate(0,0)"/>
<path d="" fill="#0000FF" transform="translate(0,0)"/>
<path d="" fill="#0000FF" transform="translate(0,0)"/>
<path d="" fill="#000000" transform="translate(0,0)"/>
<path d="" fill="#007F7F" transform="translate(0,0)"/>
<path d="" fill="#0000FF" transform="translate(0,0)"/>
<path d="" fill="#0000FF" transform="translate(0,0)"/>
<path d="" fill="#000000" transform="translate(0,0)"/>
<path d="" fill="#000000" transform="translate(0,0)"/>
<path d="" fill="#007F7F" transform="translate(0,0)"/>
<path d="" fill="#000000" transform="translate(0,0)"/>
<path d="" fill="#000000" transform="translate(0,0)"/>
<path d="" fill="#0000FF" transform="translate(0,0)"/>
<path d="" fill="#000000" transform="translate(0,0)"/>
<path d="" fill="#0000FF" transform="translate(0,0)"/>
<path d="" fill="#0000FF" transform="translate(0,0)"/>
<path d="" fill="#0000FF" transform="translate(0,0)"/>
<path d="" fill="#005555" transform="translate(0,0)"/>
<path d="" fill="#000000" transform="translate(0,0)"/>
<path d="" fill="#000000" transform="translate(0,0)"/>
<path d="" fill="#000000" transform="translate(0,0)"/>
<path d="" fill="#0000FF" transform="translate(0,0)"/>
<path d="" fill="#000000" transform="translate(0,0)"/>
<path d="" fill="#007F7F" transform="translate(0,0)"/>
<path d="" fill="#0000FF" transform="translate(0,0)"/>
<path d="" fill="#00007F" transform="translate(0,0)"/>
<path d="" fill="#00007F" transform="translate(0,0)"/>
<path d="" fill="#000000" transform="translate(0,0)"/>
<path d="" fill="#000000" transform="translate(0,0)"/>
<path d="" fill="#000000" transform="translate(0,0)"/>
<path d="" fill="#000000" transform="translate(0,0)"/>
<path d="" fill="#003F7F" transform="translate(0,0)"/>
<path d="" fill="#000000" transform="translate(0,0)"/>
<path d="" fill="#005555" transform="translate(0,0)"/>
<path d="" fill="#000000" transform="translate(0,0)"/>
<path d="" fill="#000000" transform="translate(0,0)"/>
<path d="" fill="#000000" transform="translate(0,0)"/>
<path d="" fill="#000000" transform="translate(0,0)"/>
</svg>
