<?xml version="1.0" encoding="UTF-8"?>
<svg version="1.1" xmlns="http://www.w3.org/2000/svg" width="1023" height="316">
<path d="M0 0 C337.59 0 675.18 0 1023 0 C1023 104.28 1023 208.56 1023 316 C685.41 316 347.82 316 0 316 C0 211.72 0 107.44 0 0 Z " fill="#FDFDFD" transform="translate(0,0)"/>
<path d="M0 0 C0.495 0.99 0.495 0.99 1 2 C0.32195313 2.46148437 -0.35609375 2.92296875 -1.0546875 3.3984375 C-12.2319907 11.23183836 -23.70972609 20.55517055 -27.375 34.3125 C-29.65779583 47.40363528 -27.34846484 57.11474285 -20 68 C-17.68743506 70.72926391 -17.68743506 70.72926391 -15 73 C-14.47277344 73.51820313 -13.94554687 74.03640625 -13.40234375 74.5703125 C6.76226695 93.66461477 36.63526552 99.57196322 63 104 C63.75925781 104.13422363 64.51851563 104.26844727 65.30078125 104.40673828 C90.54481582 108.7631724 116.9643987 106.20004001 142 102 C143.0832959 101.82871582 144.1665918 101.65743164 145.28271484 101.48095703 C174.66369857 96.76459557 202.67578494 85.53661975 228 70 C228.66 69.67 229.32 69.34 230 69 C224.84255926 81.70838989 202.63427655 92.03496838 191 98 C190.00484375 98.54011719 189.0096875 99.08023438 187.984375 99.63671875 C153.65755264 117.73557651 113.97768857 125.18882039 75.4909668 125.18530273 C72.83430774 125.18748211 70.1780701 125.20568817 67.52148438 125.22460938 C52.61595446 125.27429332 38.02219442 124.06363825 23.375 121.1875 C22.50238525 121.01790771 21.62977051 120.84831543 20.73071289 120.67358398 C-4.80301755 115.50618216 -33.78784711 104.64419557 -48.8125 82.0625 C-54.4264007 72.46027254 -56.48548118 61.59845973 -53.9375 50.75 C-47.98302356 30.8560119 -31.42356647 16.76876605 -13.81640625 7.08984375 C-9.25044239 4.64740743 -4.64323787 2.29188836 0 0 Z " fill="#E09D1F" transform="translate(59,168)"/>
<path d="M0 0 C0.75292207 13.84476747 1.31210998 27.68630972 1.6579895 41.54745007 C1.82415719 47.98756069 2.04865215 54.41381984 2.4140625 60.84594727 C4.7822132 103.6383022 4.7822132 103.6383022 -3.01855469 113.32574463 C-9.96000159 120.42022617 -18.80348509 124.51180935 -27.88085938 128.18789673 C-33.49875876 130.52739609 -38.40752385 133.90056531 -43.42871094 137.29753113 C-46 139 -46 139 -47 139 C-47 111.28 -47 83.56 -47 55 C-50.96 56.98 -54.92 58.96 -59 61 C-59.66 61 -60.32 61 -61 61 C-61 51.43 -61 41.86 -61 32 C-57.16375 29.9375 -53.3275 27.875 -49.375 25.75 C-38.88867498 20.10724159 -28.42178019 14.43014847 -17.97265625 8.71875 C-17.17102051 8.28175781 -16.36938477 7.84476563 -15.54345703 7.39453125 C-13.69114914 6.37894451 -11.84381627 5.3542681 -9.99951172 4.32421875 C-8.51281982 3.49857422 -8.51281982 3.49857422 -6.99609375 2.65625 C-6.08915771 2.14900391 -5.18222168 1.64175781 -4.24780273 1.11914062 C-2 0 -2 0 0 0 Z " fill="#103064" transform="translate(171,15)"/>
<path d="M0 0 C0.33 12.87 0.66 25.74 1 39 C3.64 37.02 6.28 35.04 9 33 C15.60875785 29.55669823 23.79733929 30.10745521 30.8125 32.0625 C39.54229696 37.36884717 44.22694614 42.93193119 47.08203125 52.703125 C50.2468472 65.84776201 48.61121045 80.15307309 41.875 91.8125 C37.10891619 98.86590098 31.15035346 102.72524553 23 105 C14.98688797 105.85499707 8.81226146 105.33076482 2 101 C0.67280811 100.32118934 -0.65912535 99.6513658 -2 99 C-2 100.32 -2 101.64 -2 103 C-8.27 103 -14.54 103 -21 103 C-21 69.67 -21 36.34 -21 2 C-4 0 -4 0 0 0 Z " fill="#123066" transform="translate(483,141)"/>
<path d="M0 0 C9.55305799 2.61795281 18.35125447 6.92862552 27.0625 11.5625 C28.22499268 12.1723877 29.38748535 12.78227539 30.58520508 13.41064453 C38.75177701 17.71252631 46.77554533 22.24392219 54.76416016 26.86572266 C66.78986266 33.80227368 78.73647973 39.76114301 92 44 C93.09441406 44.36996094 94.18882812 44.73992187 95.31640625 45.12109375 C121.26568727 53.32984661 152.0105705 52.23498492 177.92602539 44.57080078 C179.50163579 44.13716015 181.08941634 43.74745935 182.68139648 43.37841797 C190.28553976 41.61162952 197.27017035 39.07494269 204.4375 36 C205.48615234 35.56171875 206.53480469 35.1234375 207.61523438 34.671875 C213.31625827 32.28518493 213.31625827 32.28518493 218.70727539 29.2890625 C219.46387451 28.86367187 220.22047363 28.43828125 221 28 C221.66 28.33 222.32 28.66 223 29 C206.09338522 40.32516038 187.26735194 48.59894733 168 55 C166.86304688 55.38671875 165.72609375 55.7734375 164.5546875 56.171875 C153.32303137 59.69022511 141.61315271 61.25429871 130 63 C128.34242676 63.25632202 128.34242676 63.25632202 126.65136719 63.51782227 C122.81636129 64.02425023 118.99643813 64.33159749 115.13671875 64.546875 C114.40120285 64.58850769 113.66568695 64.63014038 112.90788269 64.67303467 C104.87774108 65.09913535 96.85305805 65.24242602 88.8125 65.25 C87.67837173 65.25151062 87.67837173 65.25151062 86.52133179 65.25305176 C68.20404607 65.23667704 50.60292494 63.21520454 33 58 C32.2786084 57.79004395 31.5572168 57.58008789 30.81396484 57.36376953 C11.80333634 51.73538092 -7.25644143 43.12310077 -18.38671875 25.84765625 C-21.46224266 19.88006073 -22.13653348 13.6073048 -21 7 C-15.26186769 -0.75423285 -8.99664307 -0.83873362 0 0 Z " fill="#0F2F63" transform="translate(62,198)"/>
<path d="M0 0 C3.16731482 1.34726318 5.68748129 3.58146743 8.32983398 5.74243164 C9.59236604 6.75476027 10.85539738 7.76646649 12.11889648 8.77758789 C12.7534375 9.28821777 13.38797852 9.79884766 14.04174805 10.32495117 C16.73582987 12.47950579 19.46755103 14.58042872 22.20483398 16.67993164 C22.7269043 17.08083008 23.24897461 17.48172852 23.78686523 17.89477539 C26.85166348 20.24665893 29.92207932 22.59113185 32.99389648 24.93383789 C41.43970229 31.37695092 49.8412719 37.86910431 58.17749023 44.45336914 C59.94382492 45.84551447 61.71433906 47.23217967 63.48608398 48.61743164 C68.85312692 52.81611397 74.19714112 57.03173999 79.45483398 61.36743164 C84.49411241 65.51961815 89.65222031 69.49443528 94.84936523 73.44555664 C97.93203455 75.83571359 100.94516759 78.2498397 103.89233398 80.80493164 C103.89233398 81.13493164 103.89233398 81.46493164 103.89233398 81.80493164 C96.96233398 81.80493164 90.03233398 81.80493164 82.89233398 81.80493164 C82.89233398 87.41493164 82.89233398 93.02493164 82.89233398 98.80493164 C81.30420898 99.46493164 79.71608398 100.12493164 78.07983398 100.80493164 C77.18651367 101.17618164 76.29319336 101.54743164 75.37280273 101.92993164 C72.89233398 102.80493164 72.89233398 102.80493164 69.89233398 102.80493164 C69.94901245 101.74749756 69.94901245 101.74749756 70.00683594 100.66870117 C70.98985965 86.97503735 70.98985965 86.97503735 66.66967773 74.48071289 C63.87977489 72.41798472 61.13558735 70.73533492 58.08959961 69.09741211 C53.56138611 66.4338163 49.52657463 63.03245647 45.39233398 59.80493164 C43.56076989 58.40677758 41.72747129 57.01089239 39.89233398 55.61743164 C36.05073443 52.69049865 32.21740456 49.75342354 28.39233398 46.80493164 C27.41393555 46.05598633 26.43553711 45.30704102 25.42749023 44.53540039 C22.45525326 42.25271523 19.51644959 39.92906917 16.57592773 37.60571289 C14.66078044 36.109341 12.74541498 34.61324828 10.82983398 33.11743164 C9.45311523 32.01818359 9.45311523 32.01818359 8.04858398 30.89672852 C7.18104492 30.22319336 6.31350586 29.5496582 5.41967773 28.85571289 C4.25553345 27.93786011 4.25553345 27.93786011 3.06787109 27.00146484 C1.00376967 25.60348853 1.00376967 25.60348853 -1.15966797 25.98413086 C-3.1589424 26.82653726 -4.95298073 27.75282124 -6.80297852 28.88696289 C-7.50970703 29.31831543 -8.21643555 29.74966797 -8.94458008 30.1940918 C-9.69964844 30.66379395 -10.4547168 31.13349609 -11.23266602 31.61743164 C-12.02382812 32.10518066 -12.81499023 32.59292969 -13.63012695 33.09545898 C-20.81127081 37.55492377 -27.83870412 42.23290764 -34.84985352 46.95336914 C-38.12071847 49.15307364 -41.41291213 51.31382507 -44.73486328 53.43554688 C-45.88581201 54.17267495 -47.0322959 54.91682884 -48.17382812 55.66845703 C-50.92816698 57.47369578 -53.66265654 59.08583746 -56.60375977 60.57446289 C-62.37609814 63.47285731 -62.37609814 63.47285731 -65.71264648 68.71459961 C-66.50157613 73.42569783 -66.40760345 78.05207693 -66.10766602 82.80493164 C-70.13753605 81.55224477 -73.79651141 80.11386484 -77.48266602 78.05493164 C-78.35665039 77.58571289 -79.23063477 77.11649414 -80.13110352 76.63305664 C-82.10766602 74.80493164 -82.10766602 74.80493164 -82.39672852 71.60180664 C-82.30133789 70.67883789 -82.20594727 69.75586914 -82.10766602 68.80493164 C-82.90430664 68.83973633 -83.70094727 68.87454102 -84.52172852 68.91040039 C-95.04615459 69.17927259 -95.04615459 69.17927259 -100.10766602 65.80493164 C-100.10766602 65.14493164 -100.10766602 64.48493164 -100.10766602 63.80493164 C-97.54019657 61.9837825 -94.95827768 60.29078842 -92.29516602 58.61743164 C-90.46486557 57.44822479 -88.63551556 56.27752936 -86.80688477 55.10571289 C-85.76193848 54.43749512 -84.71699219 53.76927734 -83.64038086 53.08081055 C-77.36193343 49.04849029 -71.14156222 44.92648142 -64.91043091 40.82162476 C-42.19624968 25.86115597 -42.19624968 25.86115597 -32.09204102 19.34350586 C-27.67564835 16.49221068 -23.29600515 13.59315584 -18.93579102 10.65649414 C-17.88359375 9.95395508 -16.83139648 9.25141602 -15.74731445 8.52758789 C-13.69681927 7.15761475 -11.65285352 5.77780375 -9.61645508 4.38696289 C-8.69574219 3.7746582 -7.7750293 3.16235352 -6.82641602 2.53149414 C-6.01108398 1.98058105 -5.19575195 1.42966797 -4.35571289 0.86206055 C-2.10766602 -0.19506836 -2.10766602 -0.19506836 0 0 Z " fill="#D7941D" transform="translate(176.107666015625,133.195068359375)"/>
<path d="M0 0 C7.59 0 15.18 0 23 0 C23.01458252 2.20502197 23.02916504 4.41004395 23.04418945 6.68188477 C23.09461557 13.98223646 23.16122471 21.28237666 23.23571491 28.58252048 C23.28036716 33.00689928 23.3196345 37.43118709 23.34643555 41.85571289 C23.37252004 46.12879522 23.4129585 50.40152645 23.46318626 54.67439079 C23.47982027 56.30134641 23.49135609 57.9283627 23.49761391 59.55539131 C23.50729307 61.8414163 23.53539598 64.12655007 23.56762695 66.41235352 C23.57873001 67.71141129 23.58983307 69.01046906 23.60127258 70.34889221 C24.32668324 76.99140635 26.79325936 81.66104946 32 86 C37.41508981 89.24905389 43.95013406 88.64508543 49.91796875 87.3828125 C55.56016188 85.66198167 58.76531288 84.06180577 61.92958069 78.79650879 C64.35319521 72.46472905 63.72538577 65.28792656 63.70703125 58.59375 C63.72016028 56.90122712 63.73546819 55.20871987 63.75285339 53.51623535 C63.79257581 49.08406244 63.80288555 44.6523006 63.80688477 40.2199707 C63.81624039 35.68818798 63.85366904 31.15664436 63.88867188 26.625 C63.95311799 17.7499545 63.98386661 8.87526495 64 0 C70.27 0 76.54 0 83 0 C83.09071476 9.45840899 83.16395319 18.91652452 83.20724869 28.3752718 C83.2280384 32.76833191 83.25619641 37.1610765 83.30175781 41.55395508 C83.34552581 45.80096178 83.36920174 50.04766682 83.37950897 54.29488182 C83.38684525 55.90745981 83.40116992 57.52002309 83.42292023 59.13247108 C83.57613735 70.97235587 82.61396032 81.68189189 74.81640625 91.21875 C65.4167478 100.43647958 52.80710748 102.58064122 40.125 102.5 C38.55008789 102.49141968 38.55008789 102.49141968 36.94335938 102.48266602 C26.02285142 102.23162957 16.70425815 99.87277747 8.6484375 92.00390625 C-0.61505965 80.74283033 -0.29587198 66.69708832 -0.1953125 52.83203125 C-0.19157351 51.30075772 -0.18873073 49.76948176 -0.18673706 48.23820496 C-0.17917026 44.24503756 -0.15958321 40.25202007 -0.1373291 36.25891113 C-0.11671918 32.16937283 -0.10770325 28.07980985 -0.09765625 23.99023438 C-0.07632934 15.99341376 -0.04120562 7.99674291 0 0 Z " fill="#143268" transform="translate(310,144)"/>
<path d="M0 0 C0.5123767 10.31692824 0.90186185 20.63078596 1.13986778 30.95789528 C1.25419152 35.75550465 1.40874208 40.54435284 1.65966797 45.33691406 C3.22969502 76.13449956 3.22969502 76.13449956 -1.9916687 84.00042725 C-7.00957863 88.77513018 -12.80379828 91.40975749 -19.21496582 93.86065674 C-23.20981414 95.49492879 -26.5317276 97.79677137 -30.01953125 100.3046875 C-31.17129731 101.08318454 -32.32552802 101.85805004 -33.48242188 102.62890625 C-34.5926328 103.37732999 -35.70265728 104.12603036 -36.8125 104.875 C-38.57928487 106.0663896 -40.3466142 107.2569236 -42.1158905 108.4446106 C-43.66443874 109.48413967 -45.210839 110.52686648 -46.75708008 111.56982422 C-49 113 -49 113 -50 113 C-50 83.96 -50 54.92 -50 25 C-44.72 22.36 -39.44 19.72 -34 17 C-30.01413992 14.94878265 -26.03384782 12.89114397 -22.0625 10.8125 C-20.6384082 10.0709668 -20.6384082 10.0709668 -19.18554688 9.31445312 C-13.99053095 6.60074556 -8.85019698 3.82215319 -3.77514648 0.8894043 C-2 0 -2 0 0 0 Z " fill="#0C2B5D" transform="translate(118,78)"/>
<path d="M0 0 C-0.96355353 10.55808656 -0.96355353 10.55808656 -2 15 C-3.396478 14.54363464 -4.7921508 14.08480512 -6.1875 13.625 C-7.35345703 13.24214844 -7.35345703 13.24214844 -8.54296875 12.8515625 C-11 12 -11 12 -13.43359375 10.94921875 C-19.20168332 8.81581576 -26.33778672 7.9052138 -32.125 10.3125 C-35.01367124 11.84574977 -35.01367124 11.84574977 -37 14 C-37.43446167 16.49260192 -37.43446167 16.49260192 -37.4375 19.3125 C-37.47746094 20.25738281 -37.51742187 21.20226562 -37.55859375 22.17578125 C-36.7719292 26.15311319 -35.1143237 27.44592501 -32 30 C-29.50802676 31.61993907 -26.93373801 33.03874222 -24.3125 34.4375 C-22.88488509 35.2203856 -21.45780089 36.00423974 -20.03125 36.7890625 C-19.34160156 37.16579102 -18.65195312 37.54251953 -17.94140625 37.93066406 C0.78114016 48.24313304 0.78114016 48.24313304 3.69140625 57.10546875 C6.05624262 66.71365009 5.70298567 75.82835722 0.5234375 84.4609375 C-5.29568926 92.45891537 -12.47667137 96.64587737 -22 99 C-25.57390557 99.42342272 -29.09133858 99.47568318 -32.6875 99.4375 C-33.6455957 99.43355225 -34.60369141 99.42960449 -35.59082031 99.42553711 C-44.1708214 99.25321608 -52.23713102 97.88143449 -60 94 C-59.35729017 88.0870696 -57.80996216 82.65755469 -56 77 C-52.51526757 78.34268364 -49.19804045 79.86033096 -45.875 81.5625 C-40.91970964 84.10039187 -37.29079068 85.15518575 -31.6875 85.1875 C-30.57761719 85.20167969 -29.46773437 85.21585937 -28.32421875 85.23046875 C-24.82169046 84.98763776 -22.19369794 84.4608979 -19 83 C-16.75407381 80.04210873 -16.70264787 77.2030379 -16.6875 73.5625 C-16.67074219 72.63566406 -16.65398438 71.70882812 -16.63671875 70.75390625 C-17.07800731 67.40865428 -17.9443635 65.67320969 -20 63 C-22.50045326 61.11149195 -22.50045326 61.11149195 -25.4375 59.5625 C-26.50613281 58.96308594 -27.57476563 58.36367187 -28.67578125 57.74609375 C-31.78932976 56.11065758 -34.93909244 54.61285592 -38.125 53.125 C-46.97177103 48.742196 -54.20520232 42.71716256 -58.23046875 33.54296875 C-60.62091301 25.64358187 -59.1960898 17.13878463 -55.375 9.9375 C-41.99901653 -6.60647955 -18.98055206 -8.57186222 0 0 Z " fill="#133066" transform="translate(748,147)"/>
<path d="M0 0 C5.98932401 3.15342836 8.2843863 7.37652876 10.30679321 13.62277222 C11.49871729 18.70588116 11.30134749 23.80956613 11.23046875 29.00390625 C11.22622391 30.18975815 11.22197906 31.37561005 11.21760559 32.59739685 C11.20091433 36.35683626 11.16327888 40.11572467 11.125 43.875 C11.10994086 46.43553909 11.09625462 48.99608665 11.08398438 51.55664062 C11.05104195 57.8088036 10.99932507 64.06055862 10.9375 70.3125 C4.0075 70.3125 -2.9225 70.3125 -10.0625 70.3125 C-10.06660889 68.79374268 -10.07071777 67.27498535 -10.07495117 65.71020508 C-10.09673191 60.07232786 -10.15101199 54.43514958 -10.21508789 48.79760742 C-10.23827689 46.35822247 -10.25266568 43.91873726 -10.25805664 41.47924805 C-10.26733906 37.97120625 -10.30831782 34.46474328 -10.35546875 30.95703125 C-10.3515361 29.86727493 -10.34760345 28.77751862 -10.34355164 27.65473938 C-10.44851642 21.46511951 -10.44851642 21.46511951 -13.36450195 16.1159668 C-16.95814951 13.7138064 -19.92687337 13.57623314 -24.0625 14.3125 C-27.57689044 15.39701893 -30.42474495 16.67474495 -33.0625 19.3125 C-33.39335773 21.57517725 -33.39335773 21.57517725 -33.38134766 24.22119141 C-33.40121735 25.24209869 -33.42108704 26.26300598 -33.44155884 27.31484985 C-33.45888565 28.97271011 -33.45888565 28.97271011 -33.4765625 30.6640625 C-33.49592865 31.7932309 -33.5152948 32.92239929 -33.5352478 34.08578491 C-33.59517069 37.70294572 -33.64148002 41.32013813 -33.6875 44.9375 C-33.72566805 47.38543078 -33.76471908 49.83334796 -33.8046875 52.28125 C-33.90088276 58.29155662 -33.98486684 64.30192611 -34.0625 70.3125 C-41.3225 70.3125 -48.5825 70.3125 -56.0625 70.3125 C-56.0625 47.2125 -56.0625 24.1125 -56.0625 0.3125 C-49.1325 0.3125 -42.2025 0.3125 -35.0625 0.3125 C-35.0625 2.9525 -35.0625 5.5925 -35.0625 8.3125 C-34.08667969 7.67441406 -33.11085938 7.03632813 -32.10546875 6.37890625 C-30.82042538 5.54409705 -29.5352629 4.70947118 -28.25 3.875 C-27.60740234 3.45412109 -26.96480469 3.03324219 -26.30273438 2.59960938 C-18.29288304 -2.58811818 -9.02690671 -3.72491325 0 0 Z " fill="#143166" transform="translate(667.0625,173.6875)"/>
<path d="M0 0 C4.94724166 4.94724166 7.2601953 10.58882694 7.37695312 17.5378418 C7.39367065 18.38940353 7.41038818 19.24096527 7.4276123 20.11833191 C7.44118774 21.03189957 7.45476318 21.94546722 7.46875 22.88671875 C7.49636414 24.31115044 7.49636414 24.31115044 7.52453613 25.76435852 C7.58320868 28.80117677 7.63600591 31.83805208 7.6875 34.875 C7.75563206 38.85817869 7.82942191 42.84119945 7.90625 46.82421875 C7.91982544 47.72766525 7.93340088 48.63111176 7.9473877 49.56193542 C7.96410522 50.42925797 7.98082275 51.29658051 7.99804688 52.19018555 C8.01057495 52.9397905 8.02310303 53.68939545 8.03601074 54.4617157 C8.25394493 58.38306024 8.75379168 62.28412512 9.1875 66.1875 C2.2575 66.1875 -4.6725 66.1875 -11.8125 66.1875 C-11.8125 63.8775 -11.8125 61.5675 -11.8125 59.1875 C-12.4725 59.1875 -13.1325 59.1875 -13.8125 59.1875 C-13.8125 59.8475 -13.8125 60.5075 -13.8125 61.1875 C-21.70818871 67.43992355 -29.87906082 69.24367994 -39.8125 68.1875 C-45.47485805 66.44603813 -49.52001728 61.94944648 -52.8125 57.1875 C-54.70172532 51.51982405 -55.0204325 45.16944406 -52.75390625 39.57421875 C-48.19260141 32.21926921 -42.45592096 28.75057839 -34.25 26.4375 C-27.16339526 24.83144489 -20.05527411 24.4744405 -12.8125 24.1875 C-13.5100976 16.39961963 -13.5100976 16.39961963 -16.6875 9.4375 C-22.40006509 7.15247396 -28.5720409 7.10410813 -34.41796875 9.05859375 C-35.92734781 9.74881231 -37.42263638 10.47110199 -38.8984375 11.23046875 C-41.15497678 12.35873839 -43.31618126 12.86539436 -45.8125 13.1875 C-46.31865298 11.91910474 -46.81719099 10.64766898 -47.3125 9.375 C-47.5909375 8.66730469 -47.869375 7.95960938 -48.15625 7.23046875 C-48.8125 5.1875 -48.8125 5.1875 -48.8125 2.1875 C-32.74206006 -5.81608525 -15.94639888 -10.27656816 0 0 Z " fill="#133167" transform="translate(864.8125,177.8125)"/>
<path d="M0 0 C3.86801186 3.26250533 6.42934226 7.92509078 8.671875 12.41015625 C8.78474692 13.87869636 8.83844804 15.35201337 8.86132812 16.82470703 C8.87804565 17.73970978 8.89476318 18.65471252 8.9119873 19.59744263 C8.92556274 20.59009125 8.93913818 21.58273987 8.953125 22.60546875 C8.98073914 24.13758499 8.98073914 24.13758499 9.00891113 25.70065308 C9.06777853 28.97876102 9.12048752 32.25692305 9.171875 35.53515625 C9.22342502 38.79196108 9.27646625 42.04869931 9.33483887 45.3053894 C9.37118389 47.33325482 9.40368431 49.36119395 9.4317627 51.38919067 C9.44848022 52.32310638 9.46519775 53.25702209 9.48242188 54.21923828 C9.49494995 55.03039093 9.50747803 55.84154358 9.52038574 56.67727661 C9.71953344 60.2699187 10.2255785 63.83978422 10.671875 67.41015625 C3.411875 67.41015625 -3.848125 67.41015625 -11.328125 67.41015625 C-11.328125 65.43015625 -11.328125 63.45015625 -11.328125 61.41015625 C-11.98039063 61.82007813 -12.63265625 62.23 -13.3046875 62.65234375 C-21.6145047 67.77550538 -28.38615437 70.78000164 -38.328125 69.41015625 C-43.98592527 67.1833531 -47.88274619 63.31721091 -51.328125 58.41015625 C-53.27409601 52.50987236 -53.40920576 45.70204746 -50.765625 40.09765625 C-42.37760661 30.84932828 -32.72064673 26.95922147 -20.328125 25.41015625 C-17.30399804 25.27515058 -14.35757627 25.31243202 -11.328125 25.41015625 C-12.00591625 17.57504424 -12.00591625 17.57504424 -15.328125 10.66015625 C-22.91509231 7.49891987 -30.93387668 9.45245692 -38.328125 12.41015625 C-39.318125 13.07015625 -40.308125 13.73015625 -41.328125 14.41015625 C-42.318125 14.41015625 -43.308125 14.41015625 -44.328125 14.41015625 C-44.83427798 13.14176099 -45.33281599 11.87032523 -45.828125 10.59765625 C-46.1065625 9.88996094 -46.385 9.18226563 -46.671875 8.453125 C-47.328125 6.41015625 -47.328125 6.41015625 -47.328125 3.41015625 C-32.47481141 -3.85848657 -15.39032659 -9.28361443 0 0 Z " fill="#133166" transform="translate(589.328125,176.58984375)"/>
<path d="M0 0 C12.61190943 6.15704698 27.12129672 17.12129672 37 27 C37.09496708 29.40348286 37.12558862 31.77810982 37.11352539 34.18188477 C37.11367142 34.93305573 37.11381744 35.68422668 37.1139679 36.4581604 C37.11326863 38.95260459 37.10547564 41.44697503 37.09765625 43.94140625 C37.09579212 45.66633564 37.09436819 47.39126557 37.09336853 49.11619568 C37.08954297 53.66512503 37.07971238 58.21402267 37.06866455 62.76293945 C37.05845124 67.40120006 37.05387108 72.03946577 37.04882812 76.67773438 C37.03809014 85.78517022 37.02101327 94.89258248 37 104 C33.47933139 101.92743068 30.37407809 99.76156272 27.25 97.125 C15.1532853 86.66250907 15.1532853 86.66250907 1.91337585 77.87037659 C0 76 0 76 -0.48101807 72.75398254 C-0.4926119 71.396962 -0.48198108 70.03964499 -0.45410156 68.68286133 C-0.45497772 67.57029716 -0.45497772 67.57029716 -0.45587158 66.43525696 C-0.45308486 63.98370556 -0.42196706 61.5333702 -0.390625 59.08203125 C-0.38316465 57.38238693 -0.37747075 55.682734 -0.37347412 53.983078 C-0.35820142 49.50957491 -0.31890585 45.0365913 -0.2746582 40.56329346 C-0.23374057 35.99864734 -0.21547063 31.43391728 -0.1953125 26.86914062 C-0.15241292 17.91253217 -0.08414204 8.95630928 0 0 Z " fill="#2767B6" transform="translate(177,49)"/>
<path d="M0 0 C7.26 0 14.52 0 22 0 C25.34090106 7.86728314 28.51184172 15.79021312 31.625 23.75 C32.00906006 24.73170166 32.39312012 25.71340332 32.78881836 26.72485352 C34.89946656 32.13542164 36.97493057 37.55681974 39 43 C41.09528803 39.85706796 42.20433009 37.00683236 43.49609375 33.4609375 C43.73030533 32.82064606 43.96451691 32.18035461 44.20582581 31.5206604 C44.70100473 30.16467823 45.1942822 28.80800039 45.68579102 27.45068359 C46.42778309 25.40183118 47.17524107 23.35504454 47.92382812 21.30859375 C49.94713088 15.76191696 51.95420905 10.2155779 53.78515625 4.6015625 C55 1 55 1 56 0 C58.69654854 -0.07319621 61.36691458 -0.09242537 64.0625 -0.0625 C64.82111328 -0.05798828 65.57972656 -0.05347656 66.36132812 -0.04882812 C68.24091871 -0.0370068 70.12046899 -0.01907078 72 0 C68.49031492 10.78547058 64.29759348 21.24825343 59.875 31.6875 C55.41786717 42.21066235 51.03865135 52.75675586 46.8125 63.375 C46.32539551 64.59872314 45.83829102 65.82244629 45.33642578 67.08325195 C44.37090255 69.51226257 43.40605 71.9415399 42.44189453 74.37109375 C40.05561079 80.37680345 37.6520926 86.37559778 35.25 92.375 C34.42179488 94.44528045 33.59366131 96.51558953 32.765625 98.5859375 C32.18296875 100.04257812 31.6003125 101.49921875 31 103 C25.39 103 19.78 103 14 103 C14.86771027 98.66144865 15.83498748 96.00031838 17.79296875 92.140625 C18.34017578 91.02429688 18.88738281 89.90796875 19.45117188 88.7578125 C20.60484395 86.42710941 21.7740633 84.1040351 22.95898438 81.7890625 C26.91068683 73.83904604 26.91068683 73.83904604 25.96704102 65.36914062 C25.64791748 64.58732422 25.32879395 63.80550781 25 63 C24.640271 62.00677734 24.28054199 61.01355469 23.90991211 59.99023438 C22.62267454 56.50991594 21.25904405 53.06791194 19.875 49.625 C19.37831222 48.37692955 18.88197801 47.12871834 18.38598633 45.88037109 C13.82861305 34.44394905 9.08522924 23.0901271 4.17578125 11.80078125 C3.75002808 10.81827393 3.75002808 10.81827393 3.31567383 9.81591797 C2.55842684 8.07205135 1.79509091 6.33083221 1.03125 4.58984375 C0 2 0 2 0 0 Z " fill="#133166" transform="translate(876,174)"/>
<path d="M0 0 C20.13 0 40.26 0 61 0 C59.90413591 4.38345635 57.96224176 7.56363403 55.5625 11.3125 C55.11438965 12.02108154 54.6662793 12.72966309 54.20458984 13.4597168 C50.85306547 18.73318038 47.39831004 23.9338358 43.91040039 29.11767578 C40.35493387 34.42057922 36.91349847 39.79228458 33.5 45.1875 C32.98324707 46.0019458 32.46649414 46.8163916 31.93408203 47.65551758 C31.20874268 48.80636841 31.20874268 48.80636841 30.46875 49.98046875 C30.04013672 50.66004639 29.61152344 51.33962402 29.16992188 52.03979492 C28.01667787 53.97205622 27.00634045 55.98731911 26 58 C37.55 58 49.1 58 61 58 C61 61.96 61 65.92 61 70 C39.22 70 17.44 70 -5 70 C-4.06467986 65.32339931 -3.29987457 63.534241 -0.71875 59.75390625 C0.29046509 58.26093018 0.29046509 58.26093018 1.32006836 56.73779297 C2.0394458 55.68994629 2.75882324 54.64209961 3.5 53.5625 C4.97086403 51.38987238 6.44092137 49.21669841 7.91015625 47.04296875 C8.97387451 45.47554932 8.97387451 45.47554932 10.05908203 43.87646484 C12.40066328 40.40621198 14.68793818 36.9053953 16.9375 33.375 C17.60523438 32.32828125 18.27296875 31.2815625 18.9609375 30.203125 C19.63382813 29.14609375 20.30671875 28.0890625 21 27 C22.68508497 24.37344517 24.37388664 21.74928728 26.0625 19.125 C27.361875 17.10375 28.66125 15.0825 30 13 C15.15 12.505 15.15 12.505 0 12 C0 8.04 0 4.08 0 0 Z " fill="#143167" transform="translate(954,174)"/>
<path d="M0 0 C0 7.26 0 14.52 0 22 C5.61 22 11.22 22 17 22 C17 25.96 17 29.92 17 34 C11.39 34 5.78 34 0 34 C0.06885529 39.90862048 0.15681197 45.81653184 0.26245117 51.72460938 C0.29569726 53.73429499 0.32373019 55.74407391 0.34643555 57.75390625 C0.37998722 60.64363347 0.43230337 63.53250593 0.48828125 66.421875 C0.49467117 67.31992859 0.5010611 68.21798218 0.50764465 69.14324951 C0.59261538 72.75157661 0.65759237 75.32642798 2.30859375 78.57421875 C5.08752071 80.91673223 8.24411539 80.41718581 11.6875 80.25 C12.38939453 80.23195313 13.09128906 80.21390625 13.81445312 80.1953125 C15.54355436 80.14826213 17.27195205 80.07651873 19 80 C20.60725635 83.21451269 20.05748185 86.43612536 20 90 C11.05871845 94.19692807 0.27533363 95.93232861 -9.44140625 93.3515625 C-14.29994894 91.19425891 -17.76723638 87.84883429 -20 83 C-21.17646889 77.6620853 -21.12849056 72.44193103 -21.09765625 67.0078125 C-21.0962413 66.06187225 -21.09482635 65.11593201 -21.09336853 64.1413269 C-21.08779484 61.13585171 -21.0752472 58.13045247 -21.0625 55.125 C-21.0574816 53.08073025 -21.05291929 51.03645932 -21.04882812 48.9921875 C-21.03783403 43.99476264 -21.02058757 38.99739417 -21 34 C-24.63 34 -28.26 34 -32 34 C-32 30.04 -32 26.08 -32 22 C-28.37 22 -24.74 22 -21 22 C-21 16.39 -21 10.78 -21 5 C-17.1946875 3.7625 -17.1946875 3.7625 -13.3125 2.5 C-12.12781128 2.10844727 -12.12781128 2.10844727 -10.91918945 1.70898438 C-10.28198975 1.50595703 -9.64479004 1.30292969 -8.98828125 1.09375 C-8.34415283 0.88427734 -7.70002441 0.67480469 -7.03637695 0.45898438 C-5 0 -5 0 0 0 Z " fill="#143165" transform="translate(786,152)"/>
<path d="M0 0 C0.87527344 -0.00257813 1.75054687 -0.00515625 2.65234375 -0.0078125 C5.0625 0.125 5.0625 0.125 8.0625 1.125 C7.92011163 3.16690981 7.77342972 5.20852045 7.625 7.25 C7.54378906 8.38695312 7.46257812 9.52390625 7.37890625 10.6953125 C7.08519035 13.8790478 6.63125687 16.98010907 6.0625 20.125 C5.27746094 20.01800781 4.49242187 19.91101563 3.68359375 19.80078125 C-5.07787215 18.79017672 -5.07787215 18.79017672 -12.9375 22.125 C-17.45730011 27.34607759 -17.53819068 31.75201579 -17.546875 38.3359375 C-17.56341125 39.30407379 -17.57994751 40.27221008 -17.59698486 41.26968384 C-17.64537345 44.34652102 -17.6668158 47.42286426 -17.6875 50.5 C-17.71566728 52.59247264 -17.74559576 54.68492237 -17.77734375 56.77734375 C-17.85443027 61.89345438 -17.89503541 67.00801744 -17.9375 72.125 C-24.8675 72.125 -31.7975 72.125 -38.9375 72.125 C-38.9375 49.025 -38.9375 25.925 -38.9375 2.125 C-32.0075 2.125 -25.0775 2.125 -17.9375 2.125 C-17.6075 5.425 -17.2775 8.725 -16.9375 12.125 C-16.40125 11.238125 -15.865 10.35125 -15.3125 9.4375 C-11.52637863 3.73127422 -6.97128822 -0.02047368 0 0 Z " fill="#113066" transform="translate(445.9375,171.875)"/>
<path d="M0 0 C0.46554465 10.33461612 0.81976818 20.66670441 1.03624344 31.00970745 C1.14021452 35.81438088 1.28083848 40.61183737 1.50878906 45.41235352 C2.9491078 76.51629304 2.9491078 76.51629304 -2.01147461 84.0581665 C-6.60127984 88.51982825 -14.22014747 94 -21 94 C-21 66.94 -21 39.88 -21 12 C-21.66 11.67 -22.32 11.34 -23 11 C-19.54515902 9.16002803 -16.0855752 7.32916118 -12.625 5.5 C-11.64015625 4.97535156 -10.6553125 4.45070313 -9.640625 3.91015625 C-8.22910156 3.16572266 -8.22910156 3.16572266 -6.7890625 2.40625 C-5.91975098 1.94541016 -5.05043945 1.48457031 -4.15478516 1.00976562 C-2 0 -2 0 0 0 Z " fill="#2A6AB8" transform="translate(118,78)"/>
<path d="M0 0 C3.68127006 2.98481356 5.821605 6.40231499 7.3125 10.875 C7.56800881 14.24539354 7.54388255 17.62093325 7.5625 21 C7.583125 21.91265625 7.60375 22.8253125 7.625 23.765625 C7.66821749 31.3502943 6.6152136 38.28256893 1.8125 44.375 C-1.38021082 47.56771082 -3.70967731 48.0358637 -8.0625 48.125 C-12.0575474 48.08596045 -14.50942984 47.45718201 -17.6875 44.875 C-20.16762083 39.91475834 -19.04263449 32.27957533 -19.0925293 26.76342773 C-19.11411421 24.96798474 -19.1482234 23.17264711 -19.19506836 21.37768555 C-19.26207228 18.78646975 -19.28952564 16.19742859 -19.30859375 13.60546875 C-19.33642441 12.80634567 -19.36425507 12.0072226 -19.39292908 11.18388367 C-19.3729182 5.74604579 -19.3729182 5.74604579 -17.41506958 3.25796509 C-12.24970066 -1.21132652 -6.429869 -2.69157307 0 0 Z " fill="#FAFAFB" transform="translate(501.6875,186.125)"/>
<path d="M0 0 C0.98484375 0.01804688 1.9696875 0.03609375 2.984375 0.0546875 C4.10585938 0.08949219 4.10585938 0.08949219 5.25 0.125 C5.38559675 2.68928515 5.48433188 5.24635216 5.5625 7.8125 C5.60439453 8.53373047 5.64628906 9.25496094 5.68945312 9.99804688 C5.78587884 14.22149312 5.62389777 15.66326981 2.85546875 19.08203125 C-1.1225012 22.20118909 -3.60796003 22.45773344 -8.5546875 22.41796875 C-10.75 22.125 -10.75 22.125 -13.25 20.25 C-15.9831623 16.37802008 -16.2976857 13.89768968 -15.75 9.125 C-11.79095546 2.70283654 -7.58656647 -0.18063253 0 0 Z " fill="#F6F7F9" transform="translate(572.75,210.875)"/>
<path d="M0 0 C0.98484375 0.01804688 1.9696875 0.03609375 2.984375 0.0546875 C4.10585938 0.08949219 4.10585938 0.08949219 5.25 0.125 C5.38559675 2.68928515 5.48433188 5.24635216 5.5625 7.8125 C5.60439453 8.53373047 5.64628906 9.25496094 5.68945312 9.99804688 C5.78492406 14.17967365 5.60921663 15.66951091 2.91796875 19.08203125 C-0.81462218 21.94022313 -4.03806968 22.60068347 -8.7421875 22.53125 C-10.75 22.125 -10.75 22.125 -13.75 19.5625 C-16.1125178 15.50192252 -16.64011818 13.73743059 -15.75 9.125 C-11.72015298 2.72389251 -7.63897675 -0.1818804 0 0 Z " fill="#F5F6F9" transform="translate(846.75,210.875)"/>
<path d="M0 0 C2.12472576 -0.05386629 4.24983652 -0.09273071 6.375 -0.125 C7.55835938 -0.14820313 8.74171875 -0.17140625 9.9609375 -0.1953125 C13 0 13 0 15 2 C15.22705078 4.33837891 15.22705078 4.33837891 15.1953125 7.2265625 C15.18564453 8.7734375 15.18564453 8.7734375 15.17578125 10.3515625 C15.15902344 11.43179688 15.14226562 12.51203125 15.125 13.625 C15.11597656 14.71296875 15.10695312 15.8009375 15.09765625 16.921875 C15.07403409 19.61480152 15.04109556 22.30729255 15 25 C14.34 25 13.68 25 13 25 C13 24.34 13 23.68 13 23 C12.43796875 22.72671875 11.8759375 22.4534375 11.296875 22.171875 C6.92293483 19.94027287 3.04615933 17.95298244 0 14 C-0.77479138 9.24205292 -0.53660321 4.77643107 0 0 Z " fill="#D19326" transform="translate(221,147)"/>
<path d="M0 0 C4.62 0 9.24 0 14 0 C14 4.62 14 9.24 14 14 C9.38 14 4.76 14 0 14 C0 9.38 0 4.76 0 0 Z " fill="#1A3967" transform="translate(178,203)"/>
<path d="M0 0 C4.62 0 9.24 0 14 0 C14 4.62 14 9.24 14 14 C9.38 14 4.76 14 0 14 C0 9.38 0 4.76 0 0 Z " fill="#1B3A68" transform="translate(161,203)"/>
<path d="M0 0 C4.62 0 9.24 0 14 0 C14 4.62 14 9.24 14 14 C9.38 14 4.76 14 0 14 C0 9.38 0 4.76 0 0 Z " fill="#1B3C6B" transform="translate(161,187)"/>
<path d="M0 0 C4.62 0 9.24 0 14 0 C14 4.62 14 9.24 14 14 C9.38 14 4.76 14 0 14 C0 9.38 0 4.76 0 0 Z " fill="#173665" transform="translate(178,187)"/>
<path d="M0 0 C0.66 0.33 1.32 0.66 2 1 C-6.02380836 6.37487355 -14.35186046 10.77557567 -23.0625 14.9375 C-24.0738501 15.4219458 -25.0852002 15.9063916 -26.12719727 16.40551758 C-35.05403662 20.61674336 -35.05403662 20.61674336 -38 21 C-38.66 20.34 -39.32 19.68 -40 19 C-40 18.67 -40 18.34 -40 18 C-41.32 17.67 -42.64 17.34 -44 17 C-43.195625 16.82726562 -42.39125 16.65453125 -41.5625 16.4765625 C-32.81994871 14.38678598 -24.66902156 11.4062965 -16.375 7.9375 C-14.81072266 7.28418701 -14.81072266 7.28418701 -13.21484375 6.61767578 C-7.60563041 4.25127432 -7.60563041 4.25127432 -2.29931641 1.29125977 C-1.54054199 0.86514404 -0.78176758 0.43902832 0 0 Z " fill="#16376B" transform="translate(283,226)"/>
<path d="M0 0 C0.66 0.33 1.32 0.66 2 1 C1.39671875 1.66386719 0.7934375 2.32773438 0.171875 3.01171875 C-0.62734375 3.89472656 -1.4265625 4.77773437 -2.25 5.6875 C-3.03890625 6.55761719 -3.8278125 7.42773438 -4.640625 8.32421875 C-7.7376738 11.83660026 -10.52491466 15.04982933 -12.625 19.25 C-14 22 -14 22 -16 23 C-18.25376045 30.02642964 -18.52253025 37.68717388 -19 45 C-21 43 -21 43 -21.3125 39.5625 C-20.78018758 23.14953367 -10.95884052 11.17682831 0 0 Z " fill="#FBBF37" transform="translate(25,189)"/>
<path d="M0 0 C0.33 0 0.66 0 1 0 C1 25.41 1 50.82 1 77 C-0.32 76.34 -1.64 75.68 -3 75 C-2.01 74.01 -2.01 74.01 -1 73 C-0.6666271 69.84223387 -0.6666271 69.84223387 -0.68115234 66.07177734 C-0.67110672 65.35947464 -0.6610611 64.64717194 -0.65071106 63.9132843 C-0.61977096 61.55417707 -0.60281423 59.19518385 -0.5859375 56.8359375 C-0.56723452 55.20210786 -0.54766177 53.56828797 -0.5272522 51.93447876 C-0.4758329 47.63059219 -0.43625982 43.32667427 -0.39910889 39.02264404 C-0.35913047 34.63220401 -0.3080101 30.24189548 -0.2578125 25.8515625 C-0.16093728 17.23446469 -0.07656985 8.61730203 0 0 Z " fill="#3F7FBF" transform="translate(213,76)"/>
<path d="M0 0 C0.66 0 1.32 0 2 0 C2 5.28 2 10.56 2 16 C0.02 15.34 -1.96 14.68 -4 14 C-3.01 13.34 -2.02 12.68 -1 12 C-0.41518879 9.11404054 -0.41518879 9.11404054 -0.3125 5.875 C-0.24675781 4.77929688 -0.18101563 3.68359375 -0.11328125 2.5546875 C-0.07589844 1.71164063 -0.03851563 0.86859375 0 0 Z " fill="#E9AC3F" transform="translate(108,200)"/>
<path d="M0 0 C0.66 0.33 1.32 0.66 2 1 C-0.05688738 2.32206963 -2.1197528 3.63261099 -4.1875 4.9375 C-4.76564453 5.31068359 -5.34378906 5.68386719 -5.93945312 6.06835938 C-9.27213038 8.15834341 -12.07744745 9.53461241 -16 10 C-16 9.34 -16 8.68 -16 8 C-13.37964982 6.63610475 -10.75443001 5.28367827 -8.125 3.9375 C-7.37863281 3.54755859 -6.63226563 3.15761719 -5.86328125 2.75585938 C-4.79013672 2.20961914 -4.79013672 2.20961914 -3.6953125 1.65234375 C-3.03547363 1.31195068 -2.37563477 0.97155762 -1.69580078 0.62084961 C-1.13618652 0.41596924 -0.57657227 0.21108887 0 0 Z " fill="#3B5485" transform="translate(283,226)"/>
<path d="M0 0 C-2.85306797 2.32472205 -5.54074837 3.7508258 -9 5 C-9.99 4.01 -10.98 3.02 -12 2 C-10.75579353 1.4654744 -9.50429064 0.94791389 -8.25 0.4375 C-7.55390625 0.14746094 -6.8578125 -0.14257812 -6.140625 -0.44140625 C-3.69987216 -1.07831803 -2.3596345 -0.80248831 0 0 Z " fill="#223D70" transform="translate(268,236)"/>
<path d="M0 0 C0.33 0.66 0.66 1.32 1 2 C-4.91684902 6.90153173 -4.91684902 6.90153173 -9.4375 7.3125 C-10.283125 7.209375 -11.12875 7.10625 -12 7 C-8.35140239 3.95950199 -4.2555467 2.03481238 0 0 Z " fill="#F5C259" transform="translate(59,168)"/>
<path d="M0 0 C0 0.99 0 1.98 0 3 C-1.75 4.60546875 -1.75 4.60546875 -4 6.1875 C-4.7425 6.71730469 -5.485 7.24710938 -6.25 7.79296875 C-6.8275 8.19128906 -7.405 8.58960938 -8 9 C-8 8.34 -8 7.68 -8 7 C-8.66 6.67 -9.32 6.34 -10 6 C-9.36191406 5.65066406 -8.72382813 5.30132812 -8.06640625 4.94140625 C-7.24011719 4.48636719 -6.41382813 4.03132812 -5.5625 3.5625 C-4.73878906 3.11003906 -3.91507812 2.65757812 -3.06640625 2.19140625 C-1.07691202 1.16337603 -1.07691202 1.16337603 0 0 Z " fill="#DFAD54" transform="translate(288,237)"/>
<path d="M0 0 C0.33 0 0.66 0 1 0 C1 5.61 1 11.22 1 17 C-0.32 16.34 -1.64 15.68 -3 15 C-2.34 14.34 -1.68 13.68 -1 13 C-0.53513282 9.87803664 -0.53513282 9.87803664 -0.375 6.375 C-0.30023438 5.18648437 -0.22546875 3.99796875 -0.1484375 2.7734375 C-0.09945312 1.85820312 -0.05046875 0.94296875 0 0 Z " fill="#4586C4" transform="translate(213,136)"/>
<path d="M0 0 C3.65316671 1.24976756 4.78065836 1.67098753 7 5 C4.36 4.67 1.72 4.34 -1 4 C-0.67 2.68 -0.34 1.36 0 0 Z " fill="#D58F27" transform="translate(273,210)"/>
</svg>
